<?xml version="1.0" encoding="UTF-8"?>
<svg id="Layer_1" data-name="Layer 1" xmlns="http://www.w3.org/2000/svg" xmlns:xlink="http://www.w3.org/1999/xlink" viewBox="0 0 251.23 211.4">
  <defs>
    <style>
      .cls-1 {
        fill: url(#linear-gradient);
      }
    </style>
    <linearGradient id="linear-gradient" x1="50.3" y1="105.44" x2="200.94" y2="105.44" gradientUnits="userSpaceOnUse">
      <stop offset="0" stop-color="#5078ba"/>
      <stop offset="1" stop-color="#4cbb92"/>
    </linearGradient>
  </defs>
  <path class="cls-1" d="M153.64,30.13h-84.08c-10.63,0-19.27,8.64-19.27,19.27v98.09c0,10.63,8.64,19.27,19.27,19.27h35.7c-10.15-10.42-16.43-24.63-16.43-40.28,0-.59.07-1.16.09-1.75h-12.35c-2.9,0-5.25-2.35-5.25-5.25s2.35-5.25,5.25-5.25h13.6c1.37-6.29,3.78-12.17,7.02-17.52h-20.62c-2.9,0-5.25-2.35-5.25-5.25s2.35-5.25,5.25-5.25h28.7c10.51-10.79,25.16-17.52,41.37-17.52,9.47,0,18.38,2.33,26.27,6.38v-25.65c0-10.63-8.64-19.27-19.27-19.27h0ZM111.6,68.67h-35.03c-2.9,0-5.25-2.35-5.25-5.25s2.35-5.25,5.25-5.25h35.03c2.9,0,5.25,2.35,5.25,5.25s-2.35,5.25-5.25,5.25ZM199.4,171.8c2.06,2.06,2.06,5.38,0,7.43-1.02,1.02-2.37,1.54-3.72,1.54s-2.69-.51-3.72-1.54l-8.37-8.37c2.69-2.25,5.18-4.74,7.43-7.43l8.37,8.37h0ZM146.64,79.18c-26.08,0-47.29,21.22-47.29,47.29s21.22,47.29,47.29,47.29,47.29-21.22,47.29-47.29-21.22-47.29-47.29-47.29ZM164.44,122.33l-15.33,16.03c-1.64,1.72-3.95,2.71-6.33,2.71s-4.69-.99-6.33-2.71l-7.63-7.98c-2-2.1-1.93-5.43.16-7.43,2.1-2.01,5.41-1.93,7.43.16l6.37,6.66,14.06-14.71c2-2.11,5.33-2.17,7.43-.17,2.1,2,2.17,5.33.17,7.43h0Z"/>
</svg>