<svg width="62" height="51" viewBox="0 0 62 51" fill="none" xmlns="http://www.w3.org/2000/svg">
<path d="M38.1379 7.26883H17.7228C15.1418 7.26883 13.0439 9.35322 13.0439 11.9177V35.5818C13.0439 38.1463 15.1418 40.2307 17.7228 40.2307H26.391C23.9265 37.7168 22.4017 34.2887 22.4017 30.5132C22.4017 30.3708 22.4187 30.2333 22.4235 30.091H19.4249C18.7207 30.091 18.1501 29.524 18.1501 28.8244C18.1501 28.1248 18.7207 27.5579 19.4249 27.5579H22.727C23.0597 26.0404 23.6448 24.6219 24.4315 23.3312H19.4249C18.7207 23.3312 18.1501 22.7642 18.1501 22.0646C18.1501 21.365 18.7207 20.7981 19.4249 20.7981H26.3934C28.9453 18.195 32.5024 16.5714 36.4382 16.5714C38.7376 16.5714 40.901 17.1335 42.8167 18.1106V11.9225C42.8167 9.35804 40.7189 7.27365 38.1379 7.27365V7.26883ZM27.9303 16.5666H19.4249C18.7207 16.5666 18.1501 15.9996 18.1501 15.3C18.1501 14.6004 18.7207 14.0334 19.4249 14.0334H27.9303C28.6345 14.0334 29.2051 14.6004 29.2051 15.3C29.2051 15.9996 28.6345 16.5666 27.9303 16.5666ZM49.2487 41.4465C49.7488 41.9435 49.7488 42.7445 49.2487 43.239C49.001 43.4851 48.6732 43.6105 48.3454 43.6105C48.0176 43.6105 47.6923 43.4875 47.4422 43.239L45.4099 41.2198C46.063 40.677 46.6676 40.0763 47.214 39.4273L49.2462 41.4465H49.2487ZM36.4382 19.1021C30.1059 19.1021 24.956 24.2214 24.956 30.5107C24.956 36.8001 30.1083 41.9194 36.4382 41.9194C42.7682 41.9194 47.9205 36.8001 47.9205 30.5107C47.9205 24.2214 42.7682 19.1021 36.4382 19.1021ZM40.7602 29.512L37.038 33.3792C36.6398 33.7941 36.0789 34.033 35.501 34.033C34.9231 34.033 34.3623 33.7941 33.9641 33.3792L32.1115 31.454C31.6258 30.9474 31.6428 30.144 32.1503 29.6615C32.6602 29.1766 33.4639 29.1959 33.9543 29.7001L35.501 31.3069L38.9149 27.7581C39.4005 27.2491 40.209 27.2346 40.7189 27.7171C41.2288 28.1996 41.2458 29.0029 40.7602 29.5096V29.512Z" fill="url(#paint0_linear_9845_48758)"/>
<defs>
<linearGradient id="paint0_linear_9845_48758" x1="13.0464" y1="25.4373" x2="49.6226" y2="25.4373" gradientUnits="userSpaceOnUse">
<stop stop-color="#5078BA"/>
<stop offset="1" stop-color="#4CBB92"/>
</linearGradient>
</defs>
</svg>
