<?xml version="1.0" encoding="UTF-8"?>
<svg id="Layer_1" xmlns="http://www.w3.org/2000/svg" xmlns:xlink="http://www.w3.org/1999/xlink" viewBox="0 0 251.23 211.4">
<defs>
<linearGradient id="linear-gradient" x1="55.324" y1="157.336" x2="195.906" y2="157.336" gradientUnits="userSpaceOnUse">
<stop offset="0" stop-color="#5078ba"/>
<stop offset="1" stop-color="#4cbb92"/>
</linearGradient>
<linearGradient id="linear-gradient-2" x1="102.047" y1="136.618" x2="149.186" y2="136.618" xlink:href="#linear-gradient"/>
<linearGradient id="linear-gradient-3" x1="71.836" y1="79.401" x2="179.396" y2="79.401" xlink:href="#linear-gradient"/>
</defs>
<path fill="url(#g)" d="M193.736,137.822h-13.416c-1.197,0-2.166.972-2.166,2.174v19.067h-105.077v-19.067c0-1.202-.971-2.174-2.169-2.174h-13.413c-1.2,0-2.171.972-2.171,2.174v34.679c0,1.203.971,2.176,2.171,2.176h136.241c1.197,0,2.169-.972,2.169-2.176v-34.679c0-1.202-.971-2.174-2.169-2.174Z" fill="url(#linear-gradient)"/>
<path fill="url(#g)" d="M146.652,128.364h-42.069c-1.401,0-2.536,1.137-2.536,2.536v11.435c0,1.401,1.135,2.538,2.536,2.538h42.069c1.399,0,2.535-1.135,2.535-2.538v-11.435c0-1.399-1.135-2.536-2.535-2.536Z" fill="url(#linear-gradient-2)"/>
<path  fill="url(#g)" d="M76.891,98.491h24.811v23.586c0,1.202.972,2.176,2.171,2.176h42.755c1.197,0,2.171-.974,2.171-2.176v-23.586h25.542c3.886,0,6.313-2.848,4.372-5.124l-24.362-28.555-24.364-28.554c-1.943-2.278-6.797-2.278-8.74,0l-24.364,28.554-24.364,28.555c-1.942,2.277.485,5.124,4.372,5.124Z" fill="url(#linear-gradient-3)"/>
</svg>