<svg width="32" height="33" viewBox="0 0 32 33" fill="none" xmlns="http://www.w3.org/2000/svg">
<rect y="0.666626" width="32" height="32" rx="16" fill="#C282FF"/>
<g clip-path="url(#clip0_1_2205)">
<path d="M24 10.6666H16L14.59 9.25663C14.21 8.87663 13.7 8.66663 13.17 8.66663H8C6.9 8.66663 6.01 9.56663 6.01 10.6666L6 22.6666C6 23.7666 6.9 24.6666 8 24.6666H24C25.1 24.6666 26 23.7666 26 22.6666V12.6666C26 11.5666 25.1 10.6666 24 10.6666ZM23 22.6666H9C8.45 22.6666 8 22.2166 8 21.6666V13.6666C8 13.1166 8.45 12.6666 9 12.6666H23C23.55 12.6666 24 13.1166 24 13.6666V21.6666C24 22.2166 23.55 22.6666 23 22.6666Z" fill="white"/>
</g>
<defs>
<clipPath id="clip0_1_2205">
<rect width="24" height="24" fill="white" transform="translate(4 4.66663)"/>
</clipPath>
</defs>
</svg>
