<svg width="62" height="51" viewBox="0 0 62 51" fill="none" xmlns="http://www.w3.org/2000/svg">
<path fill-rule="evenodd" clip-rule="evenodd" d="M28.0595 32.7471L16.4413 44.2909C15.1544 45.5695 13.0444 45.5695 11.7551 44.2909C10.4658 43.0122 10.4683 40.9158 11.7551 39.6348L23.3734 28.091C23.6477 27.8184 23.7424 27.4493 23.6356 27.0802C22.8465 24.383 23.5215 21.3553 25.6606 19.2275C27.4476 17.4519 29.866 16.6944 32.1945 16.9453C32.4106 16.9694 32.583 17.1045 32.6534 17.3072C32.7262 17.5098 32.6777 17.7221 32.5223 17.8765L27.8386 22.5302C27.6589 22.7087 27.5957 22.9476 27.6589 23.1912L28.6811 26.9861C28.7466 27.2298 28.9239 27.4059 29.1667 27.4686L32.986 28.4842C33.2313 28.5494 33.4716 28.4842 33.6513 28.3057L38.335 23.652C38.488 23.5 38.7041 23.4518 38.9081 23.5218C39.112 23.5941 39.248 23.7654 39.2723 23.9777C39.5272 26.2913 38.7599 28.6965 36.9753 30.4697C34.8338 32.5975 31.7866 33.2682 29.072 32.4817C28.7029 32.3756 28.329 32.4721 28.0547 32.7423L28.0595 32.7471ZM50.417 22.687C50.3345 21.9633 49.81 21.3988 49.0889 21.2588C47.5034 20.9525 46.2796 20.1612 45.7746 18.9453C45.2671 17.727 45.5706 16.3012 46.4763 14.9695C46.8866 14.3664 46.8575 13.6016 46.4035 13.0298C45.4784 11.867 44.4197 10.8128 43.2494 9.8912C42.674 9.43765 41.9018 9.4087 41.2924 9.81641C39.9497 10.7187 38.5171 11.0227 37.2885 10.516C36.0575 10.0094 35.2611 8.78628 34.9552 7.20127C34.8168 6.48476 34.2486 5.96125 33.5202 5.87682C32.0391 5.70553 30.5434 5.70553 29.0599 5.87682C28.3314 5.96125 27.7633 6.48476 27.6249 7.20127C27.319 8.78387 26.5201 10.0094 25.2915 10.516C24.0629 11.0202 22.6304 10.7187 21.2877 9.81641C20.6807 9.40629 19.9061 9.43524 19.3307 9.8912C18.1628 10.8128 17.1017 11.867 16.1766 13.0298C15.7226 13.6016 15.6934 14.3664 16.1038 14.9695C17.0094 16.3012 17.3129 17.7245 16.8055 18.9453C16.298 20.1636 15.0743 20.9549 13.4912 21.2588C12.7701 21.3988 12.248 21.9609 12.163 22.687C11.9955 24.1418 11.9955 25.6158 12.163 27.0705C12.2456 27.7943 12.7701 28.3588 13.4912 28.4987C15.0767 28.8051 16.3004 29.5964 16.8055 30.8123C17.1478 31.6325 17.1211 32.5469 16.7909 33.4612L21.5038 28.7786C21.0157 27.5723 20.7486 26.2575 20.7486 24.88C20.7486 19.0973 25.4663 14.4098 31.2864 14.4098C37.1064 14.4098 41.8241 19.0973 41.8241 24.88C41.8241 30.6627 37.1064 35.3502 31.2864 35.3502C29.9 35.3502 28.5743 35.0824 27.3627 34.5999L22.7081 39.2295C23.6016 38.9303 24.4903 38.9134 25.2915 39.2439C26.5226 39.7506 27.319 40.9737 27.6249 42.5587C27.7633 43.2752 28.3314 43.7987 29.0599 43.8832C30.541 44.0544 32.0367 44.0544 33.5202 43.8832C34.2486 43.7987 34.8168 43.2752 34.9552 42.5587C35.2611 40.9761 36.0599 39.7506 37.2885 39.2439C38.5171 38.7397 39.9497 39.0413 41.2924 39.9436C41.8994 40.3537 42.674 40.3247 43.2494 39.8688C44.4197 38.9472 45.4784 37.8929 46.4035 36.7301C46.8575 36.1584 46.8866 35.3936 46.4763 34.7905C45.5706 33.4588 45.2671 32.0354 45.7746 30.8147C46.2821 29.5964 47.5058 28.8051 49.0889 28.5011C49.81 28.3612 50.3321 27.7991 50.417 27.0729C50.5846 25.6158 50.5846 24.1442 50.417 22.6894V22.687Z" fill="url(#paint0_linear_9845_48770)"/>
<defs>
<linearGradient id="paint0_linear_9845_48770" x1="10.7888" y1="25.5" x2="50.5433" y2="25.5" gradientUnits="userSpaceOnUse">
<stop stop-color="#5078BA"/>
<stop offset="1" stop-color="#4CBB92"/>
</linearGradient>
</defs>
</svg>
