<?xml version="1.0" encoding="UTF-8"?>
<svg id="Layer_1" data-name="Layer 1" xmlns="http://www.w3.org/2000/svg" xmlns:xlink="http://www.w3.org/1999/xlink" viewBox="0 0 251.23 211.4">
  <defs>
    <style>
      .cls-1 {
        fill: url(#linear-gradient);
        fill-rule: evenodd;
      }
    </style>
    <linearGradient id="linear-gradient" x1="43.75" y1="105.7" x2="207.48" y2="105.7" gradientUnits="userSpaceOnUse">
      <stop offset="0" stop-color="#5078ba"/>
      <stop offset="1" stop-color="#4cbb92"/>
    </linearGradient>
  </defs>
  <path class="cls-1" d="M114.88,135.74l-47.85,47.85c-5.3,5.3-13.99,5.3-19.3,0s-5.3-13.99,0-19.3l47.85-47.85c1.13-1.13,1.52-2.66,1.08-4.19-3.25-11.18-.47-23.73,8.34-32.55,7.36-7.36,17.32-10.5,26.91-9.46.89.1,1.6.66,1.89,1.5.3.84.1,1.72-.54,2.36l-19.29,19.29c-.74.74-1,1.73-.74,2.74l4.21,15.73c.27,1.01,1,1.74,2,2l15.73,4.21c1.01.27,2,0,2.74-.74l19.29-19.29c.63-.63,1.52-.83,2.36-.54.84.3,1.4,1.01,1.5,1.89,1.05,9.59-2.11,19.56-9.46,26.91-8.82,8.82-21.37,11.6-32.55,8.34-1.52-.44-3.06-.04-4.19,1.08h0ZM206.96,94.04c-.34-3-2.5-5.34-5.47-5.92-6.53-1.27-11.57-4.55-13.65-9.59-2.09-5.05-.84-10.96,2.89-16.48,1.69-2.5,1.57-5.67-.3-8.04-3.81-4.82-8.17-9.19-12.99-13.01-2.37-1.88-5.55-2-8.06-.31-5.53,3.74-11.43,5-16.49,2.9-5.07-2.1-8.35-7.17-9.61-13.74-.57-2.97-2.91-5.14-5.91-5.49-6.1-.71-12.26-.71-18.37,0-3,.35-5.34,2.52-5.91,5.49-1.26,6.56-4.55,11.64-9.61,13.74-5.06,2.09-10.96.84-16.49-2.9-2.5-1.7-5.69-1.58-8.06.31-4.81,3.82-9.18,8.19-12.99,13.01-1.87,2.37-1.99,5.54-.3,8.04,3.73,5.52,4.98,11.42,2.89,16.48-2.09,5.05-7.13,8.33-13.65,9.59-2.97.58-5.12,2.91-5.47,5.92-.69,6.03-.69,12.14,0,18.17.34,3,2.5,5.34,5.47,5.92,6.53,1.27,11.57,4.55,13.65,9.59,1.41,3.4,1.3,7.19-.06,10.98l19.41-19.41c-2.01-5-3.11-10.45-3.11-16.16,0-23.97,19.43-43.4,43.4-43.4s43.4,19.43,43.4,43.4-19.43,43.4-43.4,43.4c-5.71,0-11.17-1.11-16.16-3.11l-19.17,19.19c3.68-1.24,7.34-1.31,10.64.06,5.07,2.1,8.35,7.17,9.61,13.74.57,2.97,2.91,5.14,5.91,5.49,6.1.71,12.26.71,18.37,0,3-.35,5.34-2.52,5.91-5.49,1.26-6.56,4.55-11.64,9.61-13.74,5.06-2.09,10.96-.84,16.49,2.9,2.5,1.7,5.69,1.58,8.06-.31,4.82-3.82,9.18-8.19,12.99-13.01,1.87-2.37,1.99-5.54.3-8.04-3.73-5.52-4.98-11.42-2.89-16.48,2.09-5.05,7.13-8.33,13.65-9.59,2.97-.58,5.12-2.91,5.47-5.92.69-6.04.69-12.14,0-18.17h0Z"/>
</svg>