<?xml version="1.0" encoding="UTF-8"?>
<svg id="Layer_1" data-name="Layer 1" xmlns="http://www.w3.org/2000/svg" xmlns:xlink="http://www.w3.org/1999/xlink" viewBox="0 0 251.23 211.4">
  <defs>
    <style>
      .cls-1 {
        fill: url(#linear-gradient);
      }
    </style>
    <linearGradient id="linear-gradient" x1="71.73" y1="105.7" x2="179.51" y2="105.7" gradientUnits="userSpaceOnUse">
      <stop offset="0" stop-color="#5078ba"/>
      <stop offset="1" stop-color="#4cbb92"/>
    </linearGradient>
  </defs>
  <path class="cls-1" d="M179.05,86.14c-.73-1.47-2.39-2.39-4.41-2.39h-42.05l12.12-65.01c.18-1.1.37-2.57-.73-3.86-.55-.73-1.47-1.1-2.39-1.1-2.02,0-3.12,1.65-3.49,2.2l-65.38,96.41c-1.1,1.65-1.29,3.49-.55,4.96.73,1.47,2.39,2.39,4.41,2.39h40.59l-12.49,72.91c-.18,1.1-.37,2.57.73,3.86.55.73,1.47,1.1,2.57,1.1h0c2.02,0,3.12-1.84,3.49-2.39l67.21-104.13c.92-1.65,1.1-3.49.37-4.96Z"/>
</svg>