<svg width="62" height="51" viewBox="0 0 62 51" fill="none" xmlns="http://www.w3.org/2000/svg">
<path d="M44.3076 20.7812C44.1304 20.4265 43.7273 20.2046 43.2368 20.2046H33.0269L35.9697 4.521C36.0134 4.25562 36.0595 3.90099 35.7924 3.58978C35.6589 3.41366 35.4355 3.3244 35.2121 3.3244C34.7216 3.3244 34.4546 3.72246 34.3647 3.85515L18.4901 27.1139C18.223 27.512 18.1769 27.9559 18.3566 28.3105C18.5338 28.6652 18.9369 28.8871 19.4273 28.8871H29.2828L26.2502 46.4766C26.2065 46.742 26.1603 47.0966 26.4274 47.4078C26.561 47.5839 26.7843 47.6732 27.0514 47.6732C27.5419 47.6732 27.809 47.2293 27.8988 47.0966L44.2178 21.9753C44.4411 21.5773 44.4848 21.1334 44.3076 20.7788V20.7812Z" fill="url(#paint0_linear_9845_48780)"/>
<defs>
<linearGradient id="paint0_linear_9845_48780" x1="18.2497" y1="25.5" x2="44.4193" y2="25.5" gradientUnits="userSpaceOnUse">
<stop stop-color="#5078BA"/>
<stop offset="1" stop-color="#4CBB92"/>
</linearGradient>
</defs>
</svg>
