<?xml version="1.0" encoding="UTF-8"?>
<svg xmlns="http://www.w3.org/2000/svg" viewBox="0 0 251.23 211.4">
  <defs>
    <linearGradient id="g1" x1="120.273" y1="161.98" x2="201.485" y2="161.98" gradientUnits="userSpaceOnUse">
      <stop offset="0" stop-color="#5078BA"/>
      <stop offset="1" stop-color="#4CBB92"/>
    </linearGradient>

    <linearGradient id="g2" x1="53.357" y1="49.419" x2="130.953" y2="49.419" gradientUnits="userSpaceOnUse">
      <stop offset="0" stop-color="#5078BA"/>
      <stop offset="1" stop-color="#4CBB92"/>
    </linearGradient>

    <linearGradient id="g3" x1="43.023" y1="105.7" x2="208.207" y2="105.7" gradientUnits="userSpaceOnUse">
      <stop offset="0" stop-color="#5078BA"/>
      <stop offset="1" stop-color="#4CBB92"/>
    </linearGradient>

    <linearGradient id="g4" x1="91.288" y1="105.703" x2="143.905" y2="105.703" gradientUnits="userSpaceOnUse">
      <stop offset="0" stop-color="#5078BA"/>
      <stop offset="1" stop-color="#4CBB92"/>
    </linearGradient>

    <linearGradient id="g5" x1="101.911" y1="106.493" x2="133.925" y2="106.493"
      gradientTransform="translate(0 212.551) scale(1 -1)"
      gradientUnits="userSpaceOnUse">
      <stop offset="0" stop-color="#5078BA"/>
      <stop offset="1" stop-color="#4CBB92"/>
    </linearGradient>
  </defs>

  <path  d="M171.652,181.557l29.833-39.152h-81.212l51.379,39.152Z"/>
  <path  d="M53.9,68.996h77.052l-51.379-39.152,1.695,14.902-14.81,2.314,1.702,14.888-14.803,2.307.543,4.741Z"/>
  <path  d="M81.748,73.268v6.436c0,1.182-.954,2.136-2.136,2.136s-2.136-.954-2.136-2.136v-6.436h-34.453l10.381,10.822-10.381,10.822 10.381,10.808-10.381,10.801 10.381,10.801-10.381,10.808h34.453v-6.436c0-1.182.954-2.136 2.136-2.136s2.136.954 2.136,2.136v6.436h126.459v-64.864h-126.459Z"/>
  <path  d="M94.848,83.948h45.497c1.965,0 3.56,1.595 3.56,3.56v36.391c0,1.965-1.595,3.56-3.56,3.56h-45.497c-1.965,0-3.56-1.595-3.56-3.56v-36.391c0-1.965 1.595-3.56 3.56-3.56Z"/>
  <path  stroke="#FFFFFF" stroke-width="1.556" stroke-miterlimit="10"
    d="M132.717,101.969l-12.738,13.32c-1.363,1.429-3.282,2.252-5.26,2.252s-3.897-.823-5.26-2.252l-6.34-6.631c-1.662-1.745-1.604-4.512.133-6.174 1.745-1.67 4.495-1.604 6.174.133l5.293,5.534 11.683-12.223c1.662-1.753 4.429-1.803 6.174-.141 1.745,1.662 1.803,4.429.141,6.174Z"/>
</svg>
