<svg width="32" height="32" viewBox="0 0 32 32" fill="none" xmlns="http://www.w3.org/2000/svg">
<rect width="32" height="32" rx="16" fill="#7982FF"/>
<path d="M16.0003 7.66663C13.864 7.67272 11.8116 8.49905 10.267 9.97496V8.49996C10.267 8.27895 10.1792 8.06698 10.0229 7.9107C9.86663 7.75442 9.65467 7.66663 9.43366 7.66663C9.21265 7.66663 9.00068 7.75442 8.8444 7.9107C8.68812 8.06698 8.60033 8.27895 8.60033 8.49996V12.25C8.60033 12.471 8.68812 12.6829 8.8444 12.8392C9.00068 12.9955 9.21265 13.0833 9.43366 13.0833H13.1837C13.4047 13.0833 13.6166 12.9955 13.7729 12.8392C13.9292 12.6829 14.017 12.471 14.017 12.25C14.017 12.0289 13.9292 11.817 13.7729 11.6607C13.6166 11.5044 13.4047 11.4166 13.1837 11.4166H11.1837C12.2551 10.2969 13.6832 9.58551 15.2224 9.40468C16.7616 9.22386 18.3157 9.58494 19.6175 10.4258C20.9193 11.2667 21.8875 12.5349 22.3556 14.0123C22.8237 15.4897 22.7624 17.084 22.1823 18.5211C21.6023 19.9582 20.5396 21.1484 19.1771 21.8869C17.8146 22.6254 16.2374 22.8661 14.7166 22.5677C13.1958 22.2693 11.8265 21.4504 10.8442 20.2518C9.86176 19.0532 9.32765 17.5497 9.33366 16C9.33366 15.7789 9.24586 15.567 9.08958 15.4107C8.9333 15.2544 8.72134 15.1666 8.50033 15.1666C8.27931 15.1666 8.06735 15.2544 7.91107 15.4107C7.75479 15.567 7.66699 15.7789 7.66699 16C7.66699 17.6481 8.15573 19.2593 9.07141 20.6297C9.98709 22.0001 11.2886 23.0682 12.8113 23.699C14.334 24.3297 16.0096 24.4947 17.6261 24.1732C19.2426 23.8516 20.7274 23.058 21.8929 21.8925C23.0583 20.7271 23.852 19.2422 24.1735 17.6257C24.4951 16.0092 24.3301 14.3336 23.6993 12.8109C23.0686 11.2882 22.0005 9.98672 20.6301 9.07105C19.2597 8.15537 17.6485 7.66663 16.0003 7.66663ZM16.0003 12.6666C15.7793 12.6666 15.5674 12.7544 15.4111 12.9107C15.2548 13.067 15.167 13.2789 15.167 13.5V16C15.167 16.221 15.2548 16.4329 15.4111 16.5892C15.5674 16.7455 15.7793 16.8333 16.0003 16.8333H17.667C17.888 16.8333 18.1 16.7455 18.2562 16.5892C18.4125 16.4329 18.5003 16.221 18.5003 16C18.5003 15.7789 18.4125 15.567 18.2562 15.4107C18.1 15.2544 17.888 15.1666 17.667 15.1666H16.8337V13.5C16.8337 13.2789 16.7459 13.067 16.5896 12.9107C16.4333 12.7544 16.2213 12.6666 16.0003 12.6666Z" fill="white"/>
</svg>
