<svg width="62" height="51" viewBox="0 0 62 51" fill="none" xmlns="http://www.w3.org/2000/svg">
<path d="M26.552 9.87433C24.3522 9.87433 22.2106 10.6487 20.5231 12.0576C16.5581 15.3652 16.041 21.2589 19.365 25.1985C21.1544 27.3166 23.7767 28.5301 26.5641 28.5301C28.764 28.5301 30.9055 27.7557 32.5906 26.3468C34.5112 24.7449 35.6912 22.4965 35.9097 20.014C36.1283 17.5316 35.361 15.1118 33.7488 13.206C31.9593 11.0878 29.337 9.87433 26.5496 9.87433H26.552ZM31.4955 18.2071L28.5721 22.0357C27.8389 22.9428 26.7657 23.4566 25.6123 23.4566C24.459 23.4566 23.3834 22.9428 22.6623 22.0502L21.6498 20.7836C20.8242 19.7607 20.9893 18.2577 22.0213 17.4351C23.0532 16.61 24.5659 16.7789 25.3938 17.8018L25.6026 18.0623L27.7466 15.2397C28.5867 14.1999 30.1018 14.0359 31.1289 14.8561C32.1608 15.6788 32.3235 17.1818 31.4979 18.2071H31.4955ZM30.3058 15.8718C30.534 16.0527 30.6748 16.3108 30.7088 16.6003C30.7404 16.8874 30.6578 17.1697 30.4636 17.4085L27.5402 21.2371C27.0692 21.821 26.365 22.1563 25.6123 22.1563C24.8597 22.1563 24.1531 21.821 23.6845 21.2396L22.672 19.973C22.2956 19.5074 22.3733 18.8247 22.8395 18.4507C23.0338 18.2939 23.2717 18.2119 23.5218 18.2119C23.5631 18.2119 23.6019 18.2119 23.6408 18.2191C23.9297 18.2505 24.1895 18.3928 24.3692 18.6148L25.0976 19.5315C25.2239 19.6907 25.4327 19.7824 25.6196 19.7776C25.8212 19.7752 26.0105 19.6787 26.1344 19.5195L28.7737 16.0406C29.1476 15.5726 29.8372 15.5003 30.3058 15.8742V15.8718ZM48.3608 39.8977C48.3389 40.1559 48.2151 40.3923 48.016 40.5588L44.0364 43.8783C43.6236 44.2209 43.0045 44.1703 42.6573 43.7577L36.3783 36.32C36.2108 36.1198 36.1307 35.8689 36.1525 35.6108C36.1744 35.3526 36.2982 35.1162 36.4973 34.9497L40.4769 31.6301C40.6614 31.4782 40.8848 31.4034 41.1082 31.4034C41.3874 31.4034 41.6666 31.5216 41.8585 31.7508L48.1374 39.1885C48.3049 39.3887 48.3851 39.6396 48.3632 39.8977H48.3608ZM38.4786 31.5988L36.7061 29.5047C36.1283 28.822 36.1088 27.8257 36.6624 27.1357C40.4356 22.4096 40.3361 15.6136 36.4245 10.9768C31.8549 5.57045 23.716 4.866 18.2821 9.40148C12.8456 13.937 12.1366 22.0236 16.6965 27.43C20.6203 32.074 27.3557 33.343 32.7071 30.4504C33.4865 30.0283 34.4723 30.2188 35.0502 30.904L36.813 32.9932L38.4786 31.6036V31.5988ZM33.4331 27.3432C31.5101 28.9475 29.0699 29.8304 26.5641 29.8304C23.3882 29.8304 20.4017 28.4457 18.3646 26.0332C14.572 21.5459 15.1669 14.8272 19.683 11.0589C21.6085 9.45455 24.0463 8.57158 26.552 8.57158C29.7279 8.57158 32.7144 9.95635 34.7515 12.3688C36.5872 14.5425 37.4637 17.2976 37.2136 20.1274C36.9659 22.9548 35.6232 25.5169 33.4331 27.3432Z" fill="url(#paint0_linear_9845_48801)"/>
<defs>
<linearGradient id="paint0_linear_9845_48801" x1="13.6906" y1="25.2564" x2="48.3681" y2="25.2564" gradientUnits="userSpaceOnUse">
<stop stop-color="#5078BA"/>
<stop offset="1" stop-color="#4CBB92"/>
</linearGradient>
</defs>
</svg>
