<?xml version="1.0" encoding="UTF-8"?>
<svg id="Layer_1" data-name="Layer 1" xmlns="http://www.w3.org/2000/svg" xmlns:xlink="http://www.w3.org/1999/xlink" viewBox="0 0 251.23 211.4">
  <defs>
    <style>
      .cls-1 {
        fill: url(#linear-gradient);
      }
    </style>
    <linearGradient id="linear-gradient" x1="55.7" y1="104.69" x2="198.52" y2="104.69" gradientUnits="userSpaceOnUse">
      <stop offset="0" stop-color="#5078ba"/>
      <stop offset="1" stop-color="#4cbb92"/>
    </linearGradient>
  </defs>
  <path class="cls-1" d="M108.67,40.93c-9.06,0-17.88,3.21-24.83,9.05-16.33,13.71-18.46,38.14-4.77,54.47,7.37,8.78,18.17,13.81,29.65,13.81,9.06,0,17.88-3.21,24.82-9.05,7.91-6.64,12.77-15.96,13.67-26.25.9-10.29-2.26-20.32-8.9-28.22-7.37-8.78-18.17-13.81-29.65-13.81h0ZM129.03,75.47l-12.04,15.87c-3.02,3.76-7.44,5.89-12.19,5.89s-9.18-2.13-12.15-5.83l-4.17-5.25c-3.4-4.24-2.72-10.47,1.53-13.88,4.25-3.42,10.48-2.72,13.89,1.52l.86,1.08,8.83-11.7c3.46-4.31,9.7-4.99,13.93-1.59,4.25,3.41,4.92,9.64,1.52,13.89h0ZM124.13,65.79c.94.75,1.52,1.82,1.66,3.02.13,1.19-.21,2.36-1.01,3.35l-12.04,15.87c-1.94,2.42-4.84,3.81-7.94,3.81s-6.01-1.39-7.94-3.8l-4.17-5.25c-1.55-1.93-1.23-4.76.69-6.31.8-.65,1.78-.99,2.81-.99.17,0,.33,0,.49.03,1.19.13,2.26.72,3,1.64l3,3.8c.52.66,1.38,1.04,2.15,1.02.83-.01,1.61-.41,2.12-1.07l10.87-14.42c1.54-1.94,4.38-2.24,6.31-.69h0ZM198.49,165.38c-.09,1.07-.6,2.05-1.42,2.74l-16.39,13.76c-1.7,1.42-4.25,1.21-5.68-.5l-25.86-30.83c-.69-.83-1.02-1.87-.93-2.94.09-1.07.6-2.05,1.42-2.74l16.39-13.76c.76-.63,1.68-.94,2.6-.94,1.15,0,2.3.49,3.09,1.44l25.86,30.83c.69.83,1.02,1.87.93,2.94h0ZM157.79,130.98l-7.3-8.68c-2.38-2.83-2.46-6.96-.18-9.82,15.54-19.59,15.13-47.76-.98-66.98-18.82-22.41-52.34-25.33-74.72-6.53-22.39,18.8-25.31,52.32-6.53,74.73,16.16,19.25,43.9,24.51,65.94,12.52,3.21-1.75,7.27-.96,9.65,1.88l7.26,8.66,6.86-5.76h0ZM137.01,113.34c-7.92,6.65-17.97,10.31-28.29,10.31-13.08,0-25.38-5.74-33.77-15.74-15.62-18.6-13.17-46.45,5.43-62.07,7.93-6.65,17.97-10.31,28.29-10.31,13.08,0,25.38,5.74,33.77,15.74,7.56,9.01,11.17,20.43,10.14,32.16-1.02,11.72-6.55,22.34-15.57,29.91h0Z"/>
</svg>