<svg width="33" height="33" viewBox="0 0 33 33" fill="none" xmlns="http://www.w3.org/2000/svg">
<rect x="0.5" y="0.333374" width="32" height="32" rx="16" fill="#EA5455"/>
<g clip-path="url(#clip0_1_2245)">
<path d="M20.3702 19.5834L17.0002 17.5834V13.0534C17.0002 12.6534 16.6802 12.3334 16.2802 12.3334H16.2203C15.8203 12.3334 15.5002 12.6534 15.5002 13.0534V17.7734C15.5002 18.1234 15.6802 18.4534 15.9902 18.6334L19.6403 20.8234C19.9803 21.0234 20.4203 20.9234 20.6203 20.5834C20.8303 20.2334 20.7203 19.7834 20.3702 19.5834ZM25.6803 9.34339L22.6003 6.78339C22.1803 6.43339 21.5503 6.48339 21.1903 6.91339C20.8403 7.33339 20.9002 7.96339 21.3202 8.32339L24.3902 10.8834C24.8102 11.2334 25.4402 11.1834 25.8002 10.7534C26.1602 10.3334 26.1003 9.70339 25.6803 9.34339ZM8.60025 10.8834L11.6702 8.32339C12.1002 7.96339 12.1603 7.33339 11.8003 6.91339C11.4503 6.48339 10.8203 6.43339 10.4002 6.78339L7.32025 9.34339C6.90025 9.70339 6.84025 10.3334 7.20025 10.7534C7.55025 11.1834 8.18025 11.2334 8.60025 10.8834ZM16.5002 8.33339C11.5303 8.33339 7.50025 12.3634 7.50025 17.3334C7.50025 22.3034 11.5303 26.3334 16.5002 26.3334C21.4702 26.3334 25.5002 22.3034 25.5002 17.3334C25.5002 12.3634 21.4702 8.33339 16.5002 8.33339ZM16.5002 24.3334C12.6403 24.3334 9.50025 21.1934 9.50025 17.3334C9.50025 13.4734 12.6403 10.3334 16.5002 10.3334C20.3602 10.3334 23.5002 13.4734 23.5002 17.3334C23.5002 21.1934 20.3602 24.3334 16.5002 24.3334Z" fill="white"/>
</g>
<defs>
<clipPath id="clip0_1_2245">
<rect width="24" height="24" fill="white" transform="translate(4.5 4.33337)"/>
</clipPath>
</defs>
</svg>
