<svg width="114" height="48" viewBox="0 0 114 48" fill="none" xmlns="http://www.w3.org/2000/svg">
<g clip-path="url(#clip0_1_2517)">
<rect x="0.5" width="113" height="48" rx="15" fill="black" fill-opacity="0.5"/>
<g filter="url(#filter0_f_1_2517)">
<rect x="-0.5" y="-1" width="115" height="50" rx="15" fill="black" fill-opacity="0.5"/>
<rect x="-0.5" y="-1" width="115" height="50" rx="15" fill="url(#paint0_linear_1_2517)"/>
</g>
</g>
<g clip-path="url(#clip1_1_2517)">
<g filter="url(#filter1_d_1_2517)">
<path d="M55.6919 18.376L52.9479 34H48.1599L48.5239 31.872C47.9079 32.5627 47.1519 33.1227 46.2559 33.552C45.3786 33.9627 44.4359 34.168 43.4279 34.168C41.8599 34.168 40.6279 33.7293 39.7319 32.852C38.8359 31.956 38.3879 30.7147 38.3879 29.128C38.3879 28.5307 38.4346 27.9893 38.5279 27.504L40.1519 18.376H44.9119L43.4279 26.86C43.3719 27.1587 43.3439 27.448 43.3439 27.728C43.3439 28.512 43.5586 29.1187 43.9879 29.548C44.4359 29.9587 45.0519 30.164 45.8359 30.164C46.7319 30.164 47.4879 29.9027 48.1039 29.38C48.7386 28.8387 49.1586 28.0733 49.3639 27.084L50.9039 18.376H55.6919ZM64.8431 13.28L61.1751 34H56.3871L60.0551 13.28H64.8431ZM71.1409 34.224C69.9089 34.224 68.7982 34.028 67.8089 33.636C66.8382 33.244 66.0729 32.7027 65.5129 32.012C64.9529 31.3027 64.6729 30.4907 64.6729 29.576C64.6729 29.4453 64.6916 29.212 64.7289 28.876H69.3489C69.3116 29.4547 69.4796 29.9213 69.8529 30.276C70.2449 30.612 70.7956 30.78 71.5049 30.78C72.1022 30.78 72.5969 30.668 72.9889 30.444C73.3809 30.22 73.5769 29.9027 73.5769 29.492C73.5769 29.1 73.3622 28.792 72.9329 28.568C72.5222 28.3253 71.8316 28.036 70.8609 27.7C69.8529 27.364 69.0036 27.0373 68.3129 26.72C67.6409 26.384 67.0622 25.908 66.5769 25.292C66.0916 24.676 65.8489 23.9013 65.8489 22.968C65.8489 22.0533 66.1196 21.232 66.6609 20.504C67.2022 19.7573 67.9582 19.1787 68.9289 18.768C69.9182 18.3573 71.0569 18.152 72.3449 18.152C73.6329 18.152 74.7529 18.3667 75.7049 18.796C76.6569 19.2067 77.3942 19.7853 77.9169 20.532C78.4396 21.2787 78.7009 22.1187 78.7009 23.052L78.6729 23.472H74.3329C74.3702 22.912 74.2022 22.464 73.8289 22.128C73.4556 21.792 72.9236 21.624 72.2329 21.624C71.6916 21.624 71.2436 21.736 70.8889 21.96C70.5529 22.184 70.3849 22.492 70.3849 22.884C70.3849 23.2947 70.6089 23.64 71.0569 23.92C71.5236 24.1813 72.2422 24.48 73.2129 24.816C74.2209 25.152 75.0516 25.488 75.7049 25.824C76.3769 26.1413 76.9462 26.5987 77.4129 27.196C77.8982 27.7747 78.1409 28.5027 78.1409 29.38C78.1409 30.388 77.8329 31.256 77.2169 31.984C76.6196 32.712 75.7889 33.272 74.7249 33.664C73.6796 34.0373 72.4849 34.224 71.1409 34.224ZM90.0022 18.152C92.0182 18.152 93.6142 18.7027 94.7902 19.804C95.9849 20.8867 96.5822 22.3707 96.5822 24.256C96.5822 24.872 96.5355 25.4227 96.4422 25.908C96.3675 26.3373 96.2555 26.7947 96.1062 27.28H85.2702C85.2515 27.392 85.2422 27.5693 85.2422 27.812C85.2422 28.6333 85.4662 29.2587 85.9142 29.688C86.3622 30.1173 86.9595 30.332 87.7062 30.332C88.9009 30.332 89.8155 29.828 90.4502 28.82H95.5462C94.8742 30.4067 93.7822 31.704 92.2702 32.712C90.7582 33.72 89.0595 34.224 87.1742 34.224C85.1582 34.224 83.5435 33.664 82.3302 32.544C81.1355 31.424 80.5382 29.9027 80.5382 27.98C80.5382 27.4013 80.5942 26.804 80.7062 26.188C80.9862 24.564 81.5649 23.1453 82.4422 21.932C83.3195 20.7187 84.4115 19.7853 85.7182 19.132C87.0249 18.4787 88.4529 18.152 90.0022 18.152ZM91.7382 24.844C91.7755 24.5827 91.7942 24.4053 91.7942 24.312C91.7942 23.5653 91.5609 22.996 91.0942 22.604C90.6275 22.1933 90.0115 21.988 89.2462 21.988C88.4249 21.988 87.6969 22.24 87.0622 22.744C86.4462 23.2293 85.9982 23.9293 85.7182 24.844H91.7382Z" fill="white"/>
</g>
<g filter="url(#filter2_d_1_2517)">
<path d="M30.3936 11.4291C31.3556 11.4398 32.1438 11.4689 32.4785 11.5316C32.7833 11.5887 33.0836 11.6368 33.3779 11.6849C33.6707 11.7328 33.9581 11.7809 34.2305 11.8363C34.771 11.9464 35.2801 12.091 35.6836 12.349C36.4506 12.8394 36.916 13.4457 37.3076 13.976C37.6976 14.5039 38.3085 15.3593 38.5205 16.4242C38.7259 17.4561 38.7527 18.6791 38.5186 19.6615C38.2826 20.651 37.7716 21.3699 37.3184 22.0853C36.83 22.8561 36.3674 23.1765 35.7061 23.7113C35.0085 24.2752 33.3797 25.2002 31.7275 25.7123C31.2948 25.8464 30.68 25.9359 30.0166 25.9965C29.3488 26.0574 28.6148 26.0903 27.9346 26.1078C27.2539 26.1253 26.6241 26.1271 26.165 26.1244C25.9412 26.1231 25.7574 26.1206 25.6279 26.1185L24.5215 32.0424L25.9873 33.515L26.4121 33.9418H18.5L18.5527 33.6478L22.1689 13.3021L20.3984 11.9769L19.7969 11.5267H22.7119C22.728 11.5263 22.752 11.5256 22.7832 11.5248C22.8459 11.5231 22.9381 11.5209 23.0557 11.5179C23.2908 11.5121 23.6285 11.5035 24.0371 11.4945C24.8542 11.4764 25.9565 11.4543 27.0977 11.4398C28.2386 11.4254 29.4199 11.4182 30.3936 11.4291ZM27.165 15.8314L27.123 16.0297L25.9551 21.5082L25.8906 21.8099H28.8203C29.1696 21.8099 29.5177 21.7671 29.8564 21.682L30.0732 21.6273C30.6806 21.4747 31.2349 21.1591 31.6768 20.7152L31.7803 20.6117C32.3572 20.032 32.6816 19.2469 32.6816 18.4291V18.0482C32.6816 17.4747 32.4543 16.9235 32.0498 16.517C31.8852 16.3516 31.6939 16.2145 31.4854 16.1097L31.4473 16.0902C31.1087 15.9202 30.7352 15.8315 30.3564 15.8314H27.165Z" fill="white"/>
</g>
</g>
<defs>
<filter id="filter0_f_1_2517" x="-4.5" y="-5" width="123" height="58" filterUnits="userSpaceOnUse" color-interpolation-filters="sRGB">
<feFlood flood-opacity="0" result="BackgroundImageFix"/>
<feBlend mode="normal" in="SourceGraphic" in2="BackgroundImageFix" result="shape"/>
<feGaussianBlur stdDeviation="2" result="effect1_foregroundBlur_1_2517"/>
</filter>
<filter id="filter1_d_1_2517" x="28.3877" y="3.28003" width="78.1943" height="40.944" filterUnits="userSpaceOnUse" color-interpolation-filters="sRGB">
<feFlood flood-opacity="0" result="BackgroundImageFix"/>
<feColorMatrix in="SourceAlpha" type="matrix" values="0 0 0 0 0 0 0 0 0 0 0 0 0 0 0 0 0 0 127 0" result="hardAlpha"/>
<feOffset/>
<feGaussianBlur stdDeviation="5"/>
<feComposite in2="hardAlpha" operator="out"/>
<feColorMatrix type="matrix" values="0 0 0 0 0 0 0 0 0 0 0 0 0 0 0 0 0 0 0.25 0"/>
<feBlend mode="normal" in2="BackgroundImageFix" result="effect1_dropShadow_1_2517"/>
<feBlend mode="normal" in="SourceGraphic" in2="effect1_dropShadow_1_2517" result="shape"/>
</filter>
<filter id="filter2_d_1_2517" x="8.5" y="1.42383" width="40.1846" height="42.5179" filterUnits="userSpaceOnUse" color-interpolation-filters="sRGB">
<feFlood flood-opacity="0" result="BackgroundImageFix"/>
<feColorMatrix in="SourceAlpha" type="matrix" values="0 0 0 0 0 0 0 0 0 0 0 0 0 0 0 0 0 0 127 0" result="hardAlpha"/>
<feOffset/>
<feGaussianBlur stdDeviation="5"/>
<feComposite in2="hardAlpha" operator="out"/>
<feColorMatrix type="matrix" values="0 0 0 0 0 0 0 0 0 0 0 0 0 0 0 0 0 0 0.25 0"/>
<feBlend mode="normal" in2="BackgroundImageFix" result="effect1_dropShadow_1_2517"/>
<feBlend mode="normal" in="SourceGraphic" in2="effect1_dropShadow_1_2517" result="shape"/>
</filter>
<linearGradient id="paint0_linear_1_2517" x1="57" y1="-0.999999" x2="57" y2="49" gradientUnits="userSpaceOnUse">
<stop stop-color="#5678BA"/>
<stop offset="1" stop-color="#54B790"/>
</linearGradient>
<clipPath id="clip0_1_2517">
<rect x="0.5" width="113" height="48" rx="15" fill="white"/>
</clipPath>
<clipPath id="clip1_1_2517">
<rect width="89" height="48" fill="white" transform="translate(12.5)"/>
</clipPath>
</defs>
</svg>
