<?xml version="1.0" encoding="UTF-8"?>
<svg id="Layer_1" data-name="Layer 1" xmlns="http://www.w3.org/2000/svg" xmlns:xlink="http://www.w3.org/1999/xlink" viewBox="0 0 251.23 211.4">
  <defs>
    <style>
      .cls-1 {
        fill: url(#linear-gradient-2);
      }

      .cls-2 {
        fill: url(#linear-gradient-3);
      }

      .cls-3 {
        fill: url(#linear-gradient);
      }
    </style>
    <linearGradient id="linear-gradient" x1="41.17" y1="101.51" x2="116.12" y2="101.51" gradientUnits="userSpaceOnUse">
      <stop offset="0" stop-color="#5078ba"/>
      <stop offset="1" stop-color="#4cbb92"/>
    </linearGradient>
    <linearGradient id="linear-gradient-2" x1="135.12" y1="109.89" x2="210.06" y2="109.89" xlink:href="#linear-gradient"/>
    <linearGradient id="linear-gradient-3" x1="69.3" y1="105.43" x2="181.75" y2="105.43" xlink:href="#linear-gradient"/>
  </defs>
  <path class="cls-3" d="M97.77,173.85c-27.48-11.36-45.61-38.28-45.61-68.14,0-25.46,13.01-48.73,34.62-62.28l4.21-2.56,3.85,7.69c1.28,2.56,4.95,2.75,6.41.37l14.29-22.53c1.47-2.38,0-5.5-2.93-5.68l-26.56-1.83c-2.93-.18-4.95,2.75-3.66,5.31l3.48,6.96-3.66,2.2c-25.1,15.2-41.03,42.86-41.03,72.36,0,34.07,21.07,65.03,52.21,78.04,3.48,1.47,7.51-1.1,7.51-4.95h0c.18-2.2-1.1-4.21-3.11-4.95Z"/>
  <path class="cls-1" d="M210.06,105.7c0-34.07-21.07-65.03-52.21-78.04-3.48-1.47-7.51,1.1-7.51,4.95,0,2.2,1.28,4.21,3.3,4.95,27.29,11.36,45.43,38.28,45.43,68.14,0,25.46-13.01,48.73-34.62,62.28l-4.21,2.56-3.85-7.69c-1.28-2.56-4.95-2.75-6.41-.37l-14.29,22.53c-1.47,2.38,0,5.5,2.93,5.68l26.56,1.83c2.93.18,4.95-2.75,3.66-5.31l-3.48-6.96,3.66-2.2c25.1-15.2,41.03-42.86,41.03-72.36Z"/>
  <path class="cls-2" d="M175.61,93.3l-2.74-.73c-2.02-.5-3.82-1.93-4.85-3.81v-.07l-.35-.83c-.95-2.24-.79-4.75.42-6.72l1.44-2.35c2.02-3.24,1.54-7.4-1.23-10.16l-6.12-5.94c-1.45-1.59-3.54-2.5-5.76-2.5-1.58,0-3.06.45-4.32,1.3l-2.27,1.4c-1.19.73-2.52,1.12-3.83,1.12-.96,0-1.87-.21-2.73-.61l-.9-.43h-.19c-1.94-1.05-3.3-2.76-3.79-4.81l-.74-2.79c-.86-3.62-4.07-6.14-7.83-6.14h-8.61c-3.57,0-6.75,2.34-7.91,5.81l-.04.13-.79,2.95c-.5,2.01-1.93,3.81-3.81,4.85h-.07l-.83.35c-.97.4-1.98.61-3,.61-1.33,0-2.63-.36-3.72-1.03l-2.35-1.45c-1.32-.81-2.8-1.25-4.32-1.25-2.18,0-4.26.92-5.71,2.53l-6.07,6.07-.12.13c-2.46,2.87-2.84,6.84-.97,9.84l1.46,2.37c1.21,1.98,1.37,4.49.43,6.73l-.35.83v.07c-1.04,1.88-2.85,3.31-4.92,3.83l-2.67.72c-3.63.86-6.15,4.06-6.15,7.83v8.6c0,3.58,2.34,6.76,5.81,7.92l.13.04,2.95.78c2.27.57,4.26,2.31,5.18,4.47.67,1.7,1.16,4.26-.39,6.8l-1.45,2.35c-1.95,3.12-1.45,7.31,1.14,9.89l6.09,6.28c1.51,1.51,3.64,2.38,5.83,2.38,1.53,0,2.97-.43,4.18-1.24l2.27-1.4c1.11-.68,2.41-1.04,3.74-1.04,1.03,0,2.03.21,3,.62l.83.35h.07c1.88,1.03,3.31,2.84,3.83,4.92l.72,2.68c.85,3.63,4.13,6.14,8,6.14h8.61c3.76,0,6.97-2.52,7.83-6.14l.69-2.61c.73-2.39,2.35-4.23,4.5-5.13,1.06-.42,2.15-.64,3.22-.64,1.37,0,2.64.35,3.75,1.03l2.35,1.45c1.26.78,2.7,1.2,4.19,1.2,2.14,0,4.24-.87,5.75-2.38l6.23-6.23c2.75-2.75,3.21-6.93,1.13-10.01l-1.4-2.27c-1.21-1.98-1.37-4.49-.42-6.73l.35-.83v-.09c1.04-1.94,2.76-3.3,4.8-3.79l2.79-.74c3.63-.86,6.14-4.14,6.14-8.01v-8.6c0-3.77-2.52-6.97-6.14-7.83ZM125.62,132.43c-14.76,0-26.72-11.96-26.72-26.73s11.96-26.72,26.72-26.72,26.73,11.96,26.73,26.72-11.97,26.73-26.73,26.73Z"/>
</svg>