<svg width="62" height="51" viewBox="0 0 62 51" fill="none" xmlns="http://www.w3.org/2000/svg">
<path d="M24.2394 41.9411C17.5671 39.2005 13.165 32.7061 13.165 25.5024C13.165 19.3602 16.3239 13.7464 21.5709 10.4774L22.5932 9.85985L23.528 11.7151C23.8388 12.3327 24.7298 12.3785 25.0843 11.8043L28.554 6.36898C28.911 5.79481 28.554 5.04211 27.8426 4.99869L21.3937 4.5572C20.6823 4.51378 20.1918 5.22064 20.505 5.83824L21.35 7.51733L20.4613 8.04807C14.3669 11.7151 10.499 18.388 10.499 25.5048C10.499 33.7242 15.6149 41.1932 23.1759 44.3319C24.0209 44.6865 24.9994 44.0665 24.9994 43.1377C25.0431 42.607 24.7323 42.1221 24.2442 41.9435L24.2394 41.9411Z" fill="url(#paint0_linear_9845_48763)"/>
<path d="M51.5041 25.5C51.5041 17.2806 46.3882 9.81158 38.8273 6.67293C37.9823 6.3183 37.0038 6.93831 37.0038 7.86711C37.0038 8.39786 37.3146 8.88277 37.8051 9.0613C44.4312 11.8019 48.8357 18.2963 48.8357 25.5C48.8357 31.6422 45.6768 37.256 40.4298 40.525L39.4076 41.1426L38.4728 39.2874C38.162 38.6698 37.2709 38.6239 36.9164 39.1981L33.4467 44.6334C33.0898 45.2076 33.4467 45.9603 34.1581 46.0037L40.607 46.4452C41.3185 46.4886 41.8089 45.7818 41.4957 45.1642L40.6507 43.4851L41.5394 42.9543C47.6338 39.2874 51.5017 32.6144 51.5017 25.4976L51.5041 25.5Z" fill="url(#paint1_linear_9845_48763)"/>
<path d="M43.1388 22.5085L42.4735 22.3324C41.9831 22.2118 41.546 21.8668 41.2959 21.4132V21.3964L41.2109 21.1961C40.9803 20.6557 41.0191 20.0502 41.3129 19.5749L41.6626 19.008C42.153 18.2263 42.0365 17.2228 41.3639 16.5569L39.8779 15.1239C39.5259 14.7403 39.0184 14.5208 38.4794 14.5208C38.0957 14.5208 37.7364 14.6293 37.4305 14.8344L36.8793 15.1721C36.5903 15.3482 36.2674 15.4423 35.9493 15.4423C35.7162 15.4423 35.4953 15.3917 35.2865 15.2952L35.068 15.1914H35.0218C34.5508 14.9381 34.2206 14.5256 34.1016 14.031L33.9219 13.3579C33.7131 12.4846 32.9337 11.8767 32.0208 11.8767H29.9302C29.0634 11.8767 28.2913 12.4412 28.0096 13.2783L27.9999 13.3097L27.8081 14.0214C27.6867 14.5063 27.3395 14.9405 26.883 15.1914H26.866L26.6645 15.2759C26.4289 15.3724 26.1837 15.423 25.9361 15.423C25.6131 15.423 25.2975 15.3362 25.0328 15.1746L24.4622 14.8247C24.1417 14.6293 23.7824 14.5232 23.4133 14.5232C22.884 14.5232 22.379 14.7451 22.0269 15.1335L20.5531 16.5979L20.5239 16.6293C19.9266 17.3217 19.8344 18.2794 20.2884 19.0032L20.6429 19.5749C20.9367 20.0526 20.9755 20.6581 20.7473 21.1985L20.6623 21.3988V21.4157C20.4098 21.8692 19.9703 22.2142 19.4677 22.3396L18.8194 22.5133C17.938 22.7208 17.3262 23.4928 17.3262 24.4023V26.4771C17.3262 27.3407 17.8943 28.1079 18.7369 28.3877L18.7684 28.3974L19.4847 28.5856C20.0359 28.7231 20.5191 29.1429 20.7424 29.664C20.9051 30.0741 21.0241 30.6917 20.6477 31.3044L20.2957 31.8714C19.8222 32.6241 19.9436 33.6349 20.5725 34.2573L22.0512 35.7724C22.4178 36.1367 22.935 36.3465 23.4667 36.3465C23.8382 36.3465 24.1879 36.2428 24.4816 36.0474L25.0328 35.7097C25.3023 35.5456 25.618 35.4587 25.9409 35.4587C26.191 35.4587 26.4338 35.5094 26.6693 35.6083L26.8709 35.6928H26.8878C27.3443 35.9412 27.6915 36.3779 27.8178 36.8797L27.9926 37.5263C28.199 38.402 28.9954 39.0075 29.9351 39.0075H32.0256C32.9386 39.0075 33.718 38.3996 33.9268 37.5263L34.0943 36.8966C34.2716 36.32 34.6649 35.8761 35.1869 35.659C35.4443 35.5577 35.709 35.5046 35.9688 35.5046C36.3014 35.5046 36.6098 35.589 36.8793 35.7531L37.4499 36.1029C37.7558 36.2911 38.1055 36.3924 38.4672 36.3924C38.9868 36.3924 39.4967 36.1825 39.8634 35.8182L41.376 34.3152C42.0438 33.6518 42.1554 32.6434 41.6504 31.9003L41.3105 31.3527C41.0167 30.875 40.9778 30.2695 41.2085 29.7291L41.2935 29.5289V29.5071C41.546 29.0391 41.9636 28.711 42.459 28.5928L43.1364 28.4143C44.0178 28.2068 44.6272 27.4155 44.6272 26.4819V24.4071C44.6272 23.4976 44.0153 22.7256 43.1364 22.5182L43.1388 22.5085ZM31.001 31.9486C27.4172 31.9486 24.5132 29.0632 24.5132 25.5C24.5132 21.9368 27.4172 19.0538 31.001 19.0538C34.5848 19.0538 37.4912 21.9392 37.4912 25.5C37.4912 29.0608 34.5848 31.9486 31.001 31.9486Z" fill="url(#paint2_linear_9845_48763)"/>
<defs>
<linearGradient id="paint0_linear_9845_48763" x1="10.4966" y1="24.4892" x2="28.6949" y2="24.4892" gradientUnits="userSpaceOnUse">
<stop stop-color="#5078BA"/>
<stop offset="1" stop-color="#4CBB92"/>
</linearGradient>
<linearGradient id="paint1_linear_9845_48763" x1="33.3083" y1="26.5108" x2="51.5041" y2="26.5108" gradientUnits="userSpaceOnUse">
<stop stop-color="#5078BA"/>
<stop offset="1" stop-color="#4CBB92"/>
</linearGradient>
<linearGradient id="paint2_linear_9845_48763" x1="17.3262" y1="25.4349" x2="44.6296" y2="25.4349" gradientUnits="userSpaceOnUse">
<stop stop-color="#5078BA"/>
<stop offset="1" stop-color="#4CBB92"/>
</linearGradient>
</defs>
</svg>
