<svg width="62" height="51" viewBox="0 0 62 51" fill="none" xmlns="http://www.w3.org/2000/svg">
<path d="M12.1918 27.3769C12.624 27.3842 13.0028 27.664 13.1388 28.0717C13.2238 28.3057 13.3185 28.5349 13.4253 28.7593C13.6195 29.1429 13.5491 29.6061 13.2505 29.9149L12.8838 30.2791C12.4978 30.6627 12.4978 31.2876 12.8838 31.6711L14.2848 33.0632C14.6709 33.4467 15.2973 33.4467 15.6834 33.0632C15.8072 32.9401 15.9335 32.8147 16.05 32.6989C16.3608 32.4021 16.827 32.3322 17.2131 32.5252C17.4389 32.6313 17.6695 32.7254 17.905 32.8098C18.3154 32.9425 18.5946 33.3213 18.6043 33.7507V34.267C18.6043 34.8098 19.0487 35.2513 19.595 35.2513H21.5763C22.1226 35.2513 22.5669 34.8098 22.5669 34.267V33.7507C22.5742 33.3213 22.8559 32.9449 23.2662 32.8098C23.5017 32.7254 23.7324 32.6313 23.9582 32.5252C24.3442 32.3322 24.8104 32.4021 25.1212 32.6989L25.4879 33.0632C25.8739 33.4467 26.5004 33.4467 26.8888 33.0632L28.2898 31.6711C28.6759 31.2876 28.6759 30.6627 28.2898 30.2791L27.9232 29.9149C27.6245 29.6061 27.5541 29.1429 27.7484 28.7593C27.8552 28.5349 27.9499 28.3057 28.0349 28.0717C28.1684 27.664 28.5496 27.3866 28.9794 27.3769H29.499C30.0453 27.3769 30.4897 26.9354 30.4897 26.3926H33.4616V41.6468C33.4616 42.1896 33.9035 42.6311 34.4522 42.6311H36.9289V45.0918C36.9289 45.6346 37.3732 46.0761 37.9195 46.0761H44.8516C45.3979 46.0761 45.8422 45.6346 45.8422 45.0918V39.8784L42.897 42.8048C42.5109 43.1884 41.8845 43.1884 41.496 42.8048L39.9202 41.2391C39.5342 40.8555 39.5342 40.2307 39.9202 39.8471C40.3063 39.4635 40.9351 39.4635 41.3212 39.8471L42.1953 40.7156L45.716 37.2175H37.9171C37.3708 37.2175 36.9264 37.6589 36.9264 38.2018V40.6625H35.4405V26.3926H36.9264V28.8534C36.9264 29.3962 37.3708 29.8377 37.9171 29.8377H44.8492C45.3955 29.8377 45.8398 29.3962 45.8398 28.8534V23.64L42.8946 26.5663C42.5085 26.9499 41.8821 26.9499 41.4936 26.5663L39.9178 25.0006C39.5317 24.617 39.5317 23.9922 39.9178 23.6086C40.3038 23.225 40.9327 23.225 41.3188 23.6086L42.1929 24.4771L45.7136 20.979H37.9146C37.3683 20.979 36.924 21.4205 36.924 21.9633V24.424H35.438V10.1542H36.924V12.6149C36.924 13.1577 37.3683 13.5992 37.9146 13.5992H44.8467C45.393 13.5992 45.8374 13.1577 45.8374 12.6149V7.40151L42.8922 10.3279C42.5061 10.7114 41.8797 10.7114 41.4912 10.3279L39.9154 8.76216C39.5293 8.37857 39.5293 7.75374 39.9154 7.37015C40.3014 6.98657 40.9303 6.98657 41.3163 7.37015L42.1904 8.23865L45.7111 4.74054H37.9122C37.3659 4.74054 36.9216 5.18202 36.9216 5.72483V8.18557H34.445C33.8986 8.18557 33.4543 8.62465 33.4543 9.16987V24.424H30.4824C30.4824 23.8812 30.038 23.4397 29.4917 23.4397H28.9721C28.5399 23.4325 28.1611 23.1526 28.0276 22.7449C27.9426 22.5109 27.8479 22.2817 27.7411 22.0574C27.5469 21.6738 27.6173 21.2106 27.9159 20.9018L28.2826 20.5375C28.6686 20.1539 28.6686 19.5291 28.2826 19.1455L26.8816 17.7535C26.4955 17.3699 25.8691 17.3699 25.4806 17.7535L25.1139 18.1178C24.8031 18.4145 24.337 18.4845 23.9509 18.2915C23.7251 18.1853 23.4944 18.0912 23.2589 18.0068C22.8486 17.8741 22.5693 17.4954 22.5596 17.0659V16.5497C22.5596 16.0069 22.1153 15.5654 21.569 15.5654H19.5877C19.0414 15.5654 18.597 16.0069 18.597 16.5497V17.0659C18.5898 17.4954 18.3081 17.8717 17.8978 18.0068C17.6622 18.0912 17.4316 18.1853 17.2058 18.2915C16.8197 18.4845 16.3535 18.4145 16.0427 18.1178L15.6761 17.7535C15.29 17.3699 14.6636 17.3699 14.2751 17.7535L12.8741 19.1455C12.4881 19.5291 12.4881 20.1539 12.8741 20.5375L13.2408 20.9018C13.5394 21.2106 13.6098 21.6738 13.4156 22.0574C13.3087 22.2817 13.214 22.5109 13.1291 22.7449C12.9955 23.1526 12.6143 23.4301 12.1821 23.4397H11.6625C11.1162 23.4397 10.6719 23.8812 10.6719 24.424V26.3926C10.6719 26.9354 11.1162 27.3769 11.6625 27.3769H12.1821H12.1918ZM20.588 20.4868C23.322 20.4868 25.5413 22.6895 25.5413 25.4083C25.5413 28.1272 23.3245 30.3298 20.588 30.3298C17.8516 30.3298 15.6348 28.1272 15.6348 25.4083C15.6348 22.6895 17.8516 20.4868 20.588 20.4868Z" fill="url(#paint0_linear_1596_15677)"/>
<defs>
<linearGradient id="paint0_linear_1596_15677" x1="10.684" y1="25.4083" x2="45.8422" y2="25.4083" gradientUnits="userSpaceOnUse">
<stop stop-color="#5078BA"/>
<stop offset="1" stop-color="#4CBB92"/>
</linearGradient>
</defs>
</svg>
