<svg width="50" height="50" viewBox="0 0 50 50" fill="none" xmlns="http://www.w3.org/2000/svg">
<path d="M39.7917 9.375H10.2083C4.57043 9.375 0 13.9454 0 19.5833C0 19.5833 4.66253 20.3125 4.79167 24.5833C4.9208 28.8542 0 29.8958 0 29.8958C0 35.8214 4.80361 40.625 10.7292 40.625H39.2708C45.1964 40.625 50 35.8214 50 29.8958C50 29.8958 45.1042 29.4792 45.1042 24.5833C45.1042 19.6875 50 19.5833 50 19.5833C50 13.9454 45.4296 9.375 39.7917 9.375Z" fill="#E3FFF5"/>
<path d="M45 9.375C47.7614 9.375 50 11.6136 50 14.375V19.583C50 19.583 45.1047 19.6875 45.1045 24.583C45.1045 29.4721 49.9866 29.8944 50 29.8955V35.625C50 38.3864 47.7614 40.625 45 40.625H5C2.23858 40.625 0 38.3864 0 35.625V29.8955C0.0207905 29.8911 4.92085 28.8448 4.79199 24.583C4.66264 20.3125 0 19.583 0 19.583V14.375C0 11.6136 2.23858 9.375 5 9.375H45ZM10.042 33.4053C9.4899 33.4053 9.0423 33.8533 9.04199 34.4053V37.541C9.04199 38.0933 9.48971 38.541 10.042 38.541C10.5941 38.5408 11.042 38.0932 11.042 37.541V34.4053C11.0417 33.8534 10.5939 33.4055 10.042 33.4053ZM38.167 33.4053C37.6149 33.4053 37.1673 33.8533 37.167 34.4053V37.541C37.167 38.0933 37.6147 38.541 38.167 38.541C38.7191 38.5408 39.167 38.0932 39.167 37.541V34.4053C39.1667 33.8534 38.7189 33.4054 38.167 33.4053ZM26.2627 31.9434C25.5082 31.2168 24.3061 31.241 23.5801 31.9961C22.8649 32.7403 22.8765 33.9205 23.6064 34.6504C24.3267 35.3705 25.4871 35.3921 26.2344 34.7002C27.0339 33.9599 27.0475 32.6992 26.2627 31.9434ZM10.042 20.8643C9.48979 20.8643 9.04212 21.3121 9.04199 21.8643V28.1348C9.04199 28.687 9.48971 29.1348 10.042 29.1348C10.5941 29.1346 11.042 28.6869 11.042 28.1348V21.8643C11.0419 21.3122 10.594 20.8644 10.042 20.8643ZM38.167 20.8643C37.6148 20.8643 37.1671 21.3121 37.167 21.8643V28.1348C37.167 28.687 37.6147 29.1348 38.167 29.1348C38.7191 29.1346 39.167 28.6869 39.167 28.1348V21.8643C39.1669 21.3122 38.719 20.8644 38.167 20.8643ZM24.8955 14.1699C22.6044 14.2563 22.3955 16.0442 22.3955 16.7734C22.3955 17.5026 22.0833 28.6484 24.8955 28.8574C27.708 29.0657 27.708 17.3984 27.708 16.7734C27.7079 16.1482 27.1869 14.0837 24.8955 14.1699ZM10.042 11.458C9.48979 11.458 9.04212 11.9058 9.04199 12.458V15.5928C9.04199 16.1451 9.48971 16.5928 10.042 16.5928C10.5941 16.5926 11.042 16.145 11.042 15.5928V12.458C11.0419 11.9059 10.594 11.4582 10.042 11.458ZM38.167 11.458C37.6148 11.458 37.1671 11.9058 37.167 12.458V15.5928C37.167 16.1451 37.6147 16.5928 38.167 16.5928C38.7191 16.5926 39.167 16.145 39.167 15.5928V12.458C39.1669 11.9059 38.719 11.4582 38.167 11.458Z" fill="url(#paint0_linear_3071_142)"/>
<defs>
<linearGradient id="paint0_linear_3071_142" x1="0" y1="25" x2="50" y2="25" gradientUnits="userSpaceOnUse">
<stop stop-color="#507BB9"/>
<stop offset="1" stop-color="#4CB894"/>
</linearGradient>
</defs>
</svg>
