<?xml version="1.0" encoding="UTF-8"?>
<svg id="Layer_1" data-name="Layer 1" xmlns="http://www.w3.org/2000/svg" xmlns:xlink="http://www.w3.org/1999/xlink" viewBox="0 0 251.23 211.4">
  <defs>
    <style>
      .cls-1 {
        fill: url(#linear-gradient-2);
      }

      .cls-2 {
        fill: url(#linear-gradient-10);
      }

      .cls-3 {
        fill: url(#linear-gradient-4);
      }

      .cls-4 {
        fill: url(#linear-gradient-3);
      }

      .cls-5 {
        fill: url(#linear-gradient-5);
      }

      .cls-6 {
        fill: url(#linear-gradient-8);
      }

      .cls-7 {
        fill: url(#linear-gradient-7);
      }

      .cls-8 {
        fill: url(#linear-gradient-9);
      }

      .cls-9 {
        fill: url(#linear-gradient-6);
      }

      .cls-10 {
        fill: url(#linear-gradient);
      }
    </style>
    <linearGradient id="linear-gradient" x1="134.98" y1="63.16" x2="149.92" y2="63.16" gradientUnits="userSpaceOnUse">
      <stop offset="0" stop-color="#5078ba"/>
      <stop offset="1" stop-color="#4cbb92"/>
    </linearGradient>
    <linearGradient id="linear-gradient-2" x1="91.83" y1="61.14" x2="136.39" y2="61.14" xlink:href="#linear-gradient"/>
    <linearGradient id="linear-gradient-3" x1="85.01" y1="72.9" x2="92.77" y2="72.9" xlink:href="#linear-gradient"/>
    <linearGradient id="linear-gradient-4" x1="126.71" y1="70.39" x2="128.64" y2="70.39" xlink:href="#linear-gradient"/>
    <linearGradient id="linear-gradient-5" x1="89.59" y1="61.52" x2="129.67" y2="61.52" xlink:href="#linear-gradient"/>
    <linearGradient id="linear-gradient-6" x1="105.36" y1="51.4" x2="122.96" y2="51.4" xlink:href="#linear-gradient"/>
    <linearGradient id="linear-gradient-7" x1="95.05" y1="80.46" x2="101.29" y2="80.46" xlink:href="#linear-gradient"/>
    <linearGradient id="linear-gradient-8" x1="78.37" y1="49.09" x2="136.2" y2="49.09" xlink:href="#linear-gradient"/>
    <linearGradient id="linear-gradient-9" x1="93.8" y1="33.27" x2="148.05" y2="33.27" xlink:href="#linear-gradient"/>
    <linearGradient id="linear-gradient-10" x1="81.78" y1="120.95" x2="163.28" y2="120.95" xlink:href="#linear-gradient"/>
  </defs>
  <path class="cls-10" d="M145.69,57.6c-.29,4.96-1.76,9.7-4.2,13.9,1.03-5.19,1.61-10.47,1.61-15.82,0-3.66-.66-7.2-1.99-10.51-.43-1.08-1.65-1.61-2.73-1.16-1.08.43-1.59,1.65-1.16,2.73,1.12,2.81,1.7,5.81,1.7,8.96,0,8.25-1.3,16.32-3.85,24.01-.02.08-.02.19-.04.27-.02.14-.06.29-.06.43s.04.27.06.39c.02.12.06.25.1.39.06.14.14.25.23.37.06.08.08.17.14.23.02.02.06.04.08.06.1.1.25.19.39.27.1.06.21.14.33.19.02.02.04.04.08.04.23.08.43.1.66.1.25,0,.48-.04.7-.12.06-.02.12-.06.21-.1.17-.08.31-.17.43-.27.02-.02.06-.04.1-.06,6.8-6.29,10.86-14.83,11.4-24.05.06-1.16-.81-2.15-1.96-2.21-1.2-.04-2.19.81-2.25,1.96Z"/>
  <path class="cls-1" d="M128.88,88.09l.33-.5c4.76-9.97,7.18-20.68,7.18-31.89,0-2.59-.43-5.11-1.3-7.45-1.2-3.43-3.19-6.43-5.83-8.83-4.07-3.83-9.41-5.94-15.1-5.94-12.24,0-22.21,9.97-22.21,22.21,0,.64-.02,1.28-.1,1.92-.1,1.14.74,2.17,1.9,2.25,1.12.1,2.17-.72,2.3-1.88.06-.77.1-1.53.1-2.32,0-9.95,8.09-18.04,18.04-18.04,4.59,0,8.94,1.72,12.22,4.82,2.17,1.96,3.76,4.38,4.76,7.2.68,1.9,1.03,3.93,1.03,6.02,0,9.51-1.86,18.66-5.48,27.2v5.81c.19.06.39.1.58.1.58,0,1.16-.25,1.59-.7Z"/>
  <path class="cls-4" d="M91.57,68.19c-1.03-.52-2.3-.06-2.79.97-.89,1.86-2.01,3.64-3.31,5.27-.72.91-.56,2.23.35,2.94.39.31.85.46,1.3.46.62,0,1.24-.27,1.65-.79,1.49-1.88,2.77-3.93,3.81-6.06.48-1.03.04-2.3-1.01-2.79Z"/>
  <path class="cls-3" d="M126.71,65.23v10.32c.79-2.59,1.43-5.19,1.9-7.88.19-1.16-.56-2.23-1.72-2.44-.06.04-.1,0-.19,0Z"/>
  <path class="cls-5" d="M127.45,59.85c1.16.02,2.15-.85,2.19-2.01.02-.72.02-1.43.02-2.17,0-8.54-6.95-15.51-15.51-15.51s-15.51,6.95-15.51,15.51c0,.68-.04,1.34-.06,2.01-.17,3.14-.7,6.18-1.61,9.06-1.45,4.65-3.79,8.94-6.89,12.72-.74.89-.62,2.19.27,2.94.39.33.87.48,1.34.48.6,0,1.18-.27,1.61-.74,3.47-4.22,6.04-8.96,7.65-14.13.12-.35.25-.74.31-1.14v-1.92c0-2.07.5-3.99,1.37-5.73l.02-.02c.04-.41.06-.85.1-1.28.04-.74.06-1.47.06-2.21,0-6.23,5.09-11.31,11.31-11.31s11.31,5.09,11.31,11.31c0,.68,0,1.3-.02,1.96-.02,1.16.87,2.13,2.03,2.19Z"/>
  <path class="cls-9" d="M114.17,46.87c-4.84,0-8.79,3.93-8.81,8.77,1.49-1.41,3.33-2.44,5.34-2.96.83-.99,2.07-1.61,3.47-1.61s2.75.68,3.58,1.74h.02c1.94.58,3.72,1.65,5.19,3.12v-.25c.02-4.86-3.93-8.81-8.79-8.81Z"/>
  <path class="cls-7" d="M95.81,86.31c.39.33.87.48,1.32.48.62,0,1.22-.27,1.63-.77.91-1.12,1.76-2.25,2.52-3.43v-8.46c-1.51,3.29-3.47,6.43-5.77,9.25-.72.89-.6,2.21.29,2.94Z"/>
  <path class="cls-6" d="M82.28,71.13l.02.02h0c.35.21.72.31,1.12.31h0c.29,0,.58-.06.85-.19.02-.02.04-.04.08-.06.08-.04.14-.1.21-.14.21-.14.39-.31.52-.5.02-.04.08-.06.1-.1,1.7-2.73,2.9-5.63,3.52-8.58.48-2.03.72-4.14.72-6.23,0-13.63,11.11-24.74,24.74-24.74,7.01,0,13.71,3,18.39,8.25.77.87,2.09.93,2.96.17.87-.77.93-2.09.17-2.96-5.46-6.14-13.3-9.66-21.53-9.66-15.95,0-28.94,12.97-28.94,28.94,0,1.76-.21,3.54-.62,5.29-.21.97-.54,1.94-.89,2.9-.72-2.67-1.12-5.4-1.12-8.21,0-6.35,1.88-12.49,5.44-17.75.64-.95.39-2.25-.56-2.92-.95-.64-2.25-.39-2.92.56-4.03,5.96-6.16,12.91-6.16,20.08,0,5.07,1.03,9.95,3.1,14.54.02.04.06.06.08.1.19.37.41.66.72.87Z"/>
  <path class="cls-8" d="M97.05,29.2c5.07-3.33,11-5.09,17.13-5.09,13.4,0,25.36,8.48,29.78,21.1.31.87,1.12,1.41,1.99,1.41.23,0,.46-.04.7-.12,1.1-.39,1.68-1.57,1.28-2.67-5.03-14.29-18.59-23.91-33.76-23.91-6.95,0-13.67,2.01-19.42,5.77-.97.64-1.24,1.94-.6,2.9.62.97,1.92,1.24,2.9.62Z"/>
  <path class="cls-2" d="M158.62,115.84s-.02-.02-.04-.02c-1.16-.56-2.4-.85-3.68-.85-1.99,0-3.83.7-5.25,1.86v-1.28c0-2.23-.87-4.34-2.46-5.92-1.57-1.59-3.68-2.46-5.92-2.46-1.99,0-3.83.7-5.25,1.86v-4.01c0-1.65-.99-3.23-2.73-4.32-.74-.46-1.61-.83-2.54-1.08-.97-.27-2.03-.39-3.1-.39-1.8,0-3.52.37-4.94,1.1-.1.04-.21.1-.31.17v-35.58c0-2.23-.87-4.34-2.46-5.92-1.57-1.57-3.68-2.46-5.92-2.46-4.61,0-8.38,3.76-8.38,8.38v63l-3.64-7.01c-1.84-3.56-5.5-5.79-9.51-5.79-1.7,0-3.39.41-4.92,1.2-5.23,2.71-7.3,9.2-4.57,14.44l19.32,37.25c.17.31.35.62.56.91,2.75,4.88,6.76,9,11.58,11.87,4.98,2.98,10.71,4.57,16.55,4.57s11.62-1.59,16.65-4.61c4.86-2.94,8.89-7.12,11.62-12.08,0,0,.02-.02.02-.04v-.02c2.61-4.74,3.99-10.11,3.99-15.55v-29.72c0-2.23-.87-4.34-2.46-5.92-.64-.64-1.39-1.18-2.19-1.57Z"/>
</svg>