<svg width="62" height="51" viewBox="0 0 62 51" fill="none" xmlns="http://www.w3.org/2000/svg">
<path d="M35.8744 13.8959C35.8039 15.0925 35.447 16.236 34.8546 17.2493C35.1047 15.9972 35.2455 14.7234 35.2455 13.4327C35.2455 12.5498 35.0852 11.6957 34.7623 10.8972C34.6579 10.6367 34.3617 10.5088 34.0995 10.6174C33.8372 10.7211 33.7134 11.0154 33.8178 11.276C34.0897 11.9539 34.2306 12.6776 34.2306 13.4376C34.2306 15.4279 33.9149 17.3747 33.2958 19.2299C33.2909 19.2492 33.2909 19.2758 33.2861 19.2951C33.2812 19.3289 33.2715 19.365 33.2715 19.3988C33.2715 19.4326 33.2812 19.464 33.2861 19.4929C33.2909 19.5219 33.3006 19.5532 33.3103 19.587C33.3249 19.6208 33.3443 19.6473 33.3662 19.6763C33.3807 19.6956 33.3856 19.7173 33.4002 19.7317C33.405 19.7366 33.4147 19.7414 33.4196 19.7462C33.4439 19.7703 33.4803 19.7921 33.5143 19.8114C33.5386 19.8258 33.5653 19.8451 33.5944 19.8572C33.5993 19.862 33.6041 19.8668 33.6138 19.8668C33.6697 19.8861 33.7182 19.891 33.7741 19.891C33.8348 19.891 33.8906 19.8813 33.9441 19.862C33.9586 19.8572 33.9732 19.8475 33.995 19.8379C34.0363 19.8186 34.0703 19.7969 34.0995 19.7728C34.1043 19.7679 34.114 19.7631 34.1237 19.7583C35.7748 18.2408 36.7606 16.1806 36.8917 13.9562C36.9063 13.6764 36.695 13.4376 36.4158 13.4231C36.1244 13.4134 35.8841 13.6185 35.8695 13.8959H35.8744Z" fill="url(#paint0_linear_9845_48785)"/>
<path d="M31.7929 21.2516L31.873 21.131C33.0287 18.7257 33.6163 16.1419 33.6163 13.4375C33.6163 12.8127 33.5119 12.2048 33.3007 11.6402C33.0093 10.8128 32.5261 10.089 31.8851 9.51001C30.8969 8.58603 29.6003 8.077 28.2188 8.077C25.2468 8.077 22.826 10.4822 22.826 13.4351C22.826 13.5895 22.8212 13.7439 22.8018 13.8983C22.7775 14.1734 22.9814 14.4218 23.2631 14.4411C23.535 14.4653 23.79 14.2674 23.8215 13.9876C23.8361 13.8018 23.8458 13.6185 23.8458 13.4279C23.8458 11.0275 25.8101 9.07577 28.226 9.07577C29.3405 9.07577 30.3967 9.49071 31.1931 10.2386C31.72 10.7114 32.1061 11.2953 32.3489 11.9756C32.514 12.4339 32.599 12.9237 32.599 13.4279C32.599 15.7222 32.1473 17.9296 31.2684 19.9899V21.3915C31.3145 21.406 31.3631 21.4156 31.4092 21.4156C31.55 21.4156 31.6909 21.3553 31.7953 21.2468L31.7929 21.2516Z" fill="url(#paint1_linear_9845_48785)"/>
<path d="M22.7332 16.4507C22.4831 16.3253 22.1748 16.4363 22.0558 16.6848C21.8397 17.1335 21.5678 17.5629 21.2521 17.9561C21.0773 18.1757 21.1161 18.4941 21.3371 18.6654C21.4318 18.7402 21.5435 18.7764 21.6527 18.7764C21.8033 18.7764 21.9538 18.7112 22.0534 18.5858C22.4152 18.1323 22.7259 17.6377 22.9785 17.1238C23.095 16.8753 22.9882 16.569 22.7332 16.4507Z" fill="url(#paint2_linear_9845_48785)"/>
<path d="M31.2661 15.7367V18.2264C31.4579 17.6015 31.6133 16.9743 31.7274 16.3253C31.7736 16.0455 31.5915 15.7873 31.3098 15.7367C31.2952 15.7463 31.2855 15.7367 31.2637 15.7367H31.2661Z" fill="url(#paint3_linear_9845_48785)"/>
<path d="M31.4453 14.4387C31.727 14.4436 31.9673 14.2337 31.977 13.9538C31.9819 13.7801 31.9819 13.6088 31.9819 13.4303C31.9819 11.37 30.2944 9.68854 28.216 9.68854C26.1376 9.68854 24.4501 11.3652 24.4501 13.4303C24.4501 13.5944 24.4404 13.7536 24.4355 13.9152C24.3942 14.6727 24.2655 15.4061 24.0446 16.1009C23.6925 17.2227 23.1244 18.2577 22.3717 19.1696C22.192 19.3843 22.2211 19.698 22.4372 19.8789C22.5319 19.9585 22.6485 19.9947 22.7626 19.9947C22.9083 19.9947 23.0491 19.9296 23.1535 19.8162C23.996 18.7981 24.62 17.6546 25.011 16.4073C25.0401 16.3229 25.0717 16.2288 25.0862 16.1323V15.6691C25.0862 15.1697 25.2076 14.7065 25.4189 14.2867L25.4237 14.2819C25.4334 14.183 25.4383 14.0769 25.448 13.9731C25.4577 13.7946 25.4626 13.6185 25.4626 13.44C25.4626 11.937 26.6985 10.7114 28.2087 10.7114C29.719 10.7114 30.9548 11.9394 30.9548 13.44C30.9548 13.604 30.9548 13.7536 30.95 13.9128C30.9451 14.1927 31.1612 14.4267 31.4429 14.4411L31.4453 14.4387Z" fill="url(#paint4_linear_9845_48785)"/>
<path d="M28.2211 11.3073C27.046 11.3073 26.0869 12.2555 26.082 13.4231C26.4438 13.0829 26.8906 12.8344 27.3786 12.709C27.5801 12.4702 27.8812 12.3206 28.2211 12.3206C28.5611 12.3206 28.8889 12.4846 29.0904 12.7404H29.0952C29.5663 12.8803 29.9985 13.1384 30.3554 13.4931V13.4327C30.3603 12.2603 29.4012 11.3073 28.2211 11.3073Z" fill="url(#paint5_linear_9845_48785)"/>
<path d="M23.7628 20.8222C23.8575 20.9018 23.974 20.938 24.0833 20.938C24.2338 20.938 24.3795 20.8729 24.479 20.7522C24.7 20.482 24.9064 20.2094 25.0909 19.9248V17.8838C24.7243 18.6775 24.2484 19.435 23.6899 20.1153C23.5151 20.3301 23.5442 20.6485 23.7603 20.8246L23.7628 20.8222Z" fill="url(#paint6_linear_9845_48785)"/>
<path d="M20.4782 17.16L20.483 17.1649C20.568 17.2155 20.6579 17.2396 20.755 17.2396C20.8254 17.2396 20.8958 17.2252 20.9614 17.1938C20.9662 17.189 20.9711 17.1842 20.9808 17.1793C21.0002 17.1697 21.0148 17.1552 21.0318 17.1456C21.0828 17.1118 21.1265 17.0708 21.158 17.0249C21.1629 17.0153 21.1775 17.0105 21.1823 17.0008C21.5951 16.3422 21.8865 15.6426 22.037 14.9309C22.1535 14.4412 22.2118 13.9321 22.2118 13.4279C22.2118 10.1397 24.9094 7.45941 28.2188 7.45941C29.9209 7.45941 31.5477 8.18316 32.684 9.44971C32.871 9.6596 33.1915 9.67408 33.4027 9.49073C33.614 9.30497 33.6285 8.98652 33.444 8.77663C32.1183 7.29536 30.2147 6.44617 28.2164 6.44617C24.3437 6.44617 21.1896 9.57516 21.1896 13.4279C21.1896 13.8525 21.1386 14.2819 21.0391 14.7041C20.9881 14.9381 20.908 15.1721 20.823 15.4037C20.6482 14.7596 20.551 14.101 20.551 13.4231C20.551 11.8912 21.0075 10.4099 21.8719 9.14092C22.0273 8.91173 21.9666 8.59811 21.7359 8.43647C21.5053 8.28207 21.1896 8.34238 21.0269 8.57157C20.0484 10.0094 19.5312 11.6861 19.5312 13.4158C19.5312 14.639 19.7813 15.8163 20.2839 16.9236C20.2888 16.9333 20.2985 16.9381 20.3034 16.9477C20.3495 17.037 20.4029 17.107 20.4782 17.1576V17.16Z" fill="url(#paint7_linear_9845_48785)"/>
<path d="M24.0639 7.04445C25.2949 6.24109 26.7347 5.8165 28.2231 5.8165C31.4767 5.8165 34.3807 7.86229 35.4539 10.9068C35.5291 11.1167 35.7258 11.247 35.937 11.247C35.9929 11.247 36.0487 11.2374 36.107 11.2181C36.3741 11.124 36.5149 10.8393 36.4178 10.5739C35.1965 7.12648 31.904 4.80566 28.2207 4.80566C26.5332 4.80566 24.9015 5.29057 23.5054 6.19767C23.2699 6.35207 23.2043 6.66569 23.3597 6.89729C23.5103 7.1313 23.8259 7.19644 24.0639 7.04687V7.04445Z" fill="url(#paint8_linear_9845_48785)"/>
<path d="M39.0139 27.9463C39.0139 27.9463 39.0091 27.9414 39.0042 27.9414C38.7226 27.8063 38.4215 27.7364 38.1107 27.7364C37.6275 27.7364 37.1808 27.9052 36.836 28.1851V27.8763C36.836 27.3383 36.6247 26.8293 36.2387 26.4481C35.8575 26.0645 35.3452 25.8546 34.8013 25.8546C34.3181 25.8546 33.8713 26.0235 33.5265 26.3033V25.3359C33.5265 24.9379 33.2862 24.5567 32.8637 24.2937C32.684 24.1828 32.4728 24.0935 32.247 24.0332C32.0114 23.9681 31.7541 23.9391 31.4943 23.9391C31.0572 23.9391 30.6396 24.0284 30.2948 24.2045C30.2705 24.2141 30.2438 24.2286 30.2195 24.2455V15.6619C30.2195 15.1239 30.0083 14.6148 29.6222 14.2337C29.241 13.8549 28.7287 13.6402 28.1848 13.6402C27.0655 13.6402 26.1501 14.5473 26.1501 15.6619V30.8605L25.2663 29.1694C24.8195 28.3105 23.9309 27.7726 22.9572 27.7726C22.5445 27.7726 22.1341 27.8715 21.7626 28.0621C20.4927 28.7158 19.9901 30.2815 20.653 31.5457L25.344 40.5322C25.3853 40.607 25.429 40.6818 25.48 40.7517C26.1477 41.929 27.1213 42.923 28.2917 43.6154C29.5008 44.3343 30.8921 44.7179 32.3101 44.7179C33.7281 44.7179 35.1315 44.3343 36.3528 43.6057C37.5328 42.8964 38.5113 41.888 39.1742 40.6914C39.1742 40.6914 39.1791 40.6866 39.1791 40.6818V40.677C39.8128 39.5334 40.1478 38.2379 40.1478 36.9255V29.7556C40.1478 29.2176 39.9366 28.7086 39.5505 28.3274C39.3951 28.173 39.213 28.0428 39.0188 27.9487L39.0139 27.9463Z" fill="url(#paint9_linear_9845_48785)"/>
<defs>
<linearGradient id="paint0_linear_9845_48785" x1="33.2739" y1="15.2373" x2="36.9014" y2="15.2373" gradientUnits="userSpaceOnUse">
<stop stop-color="#5078BA"/>
<stop offset="1" stop-color="#4CBB92"/>
</linearGradient>
<linearGradient id="paint1_linear_9845_48785" x1="22.7969" y1="14.7499" x2="33.6163" y2="14.7499" gradientUnits="userSpaceOnUse">
<stop stop-color="#5078BA"/>
<stop offset="1" stop-color="#4CBB92"/>
</linearGradient>
<linearGradient id="paint2_linear_9845_48785" x1="21.1404" y1="17.587" x2="23.0246" y2="17.587" gradientUnits="userSpaceOnUse">
<stop stop-color="#5078BA"/>
<stop offset="1" stop-color="#4CBB92"/>
</linearGradient>
<linearGradient id="paint3_linear_9845_48785" x1="31.2661" y1="16.9815" x2="31.7347" y2="16.9815" gradientUnits="userSpaceOnUse">
<stop stop-color="#5078BA"/>
<stop offset="1" stop-color="#4CBB92"/>
</linearGradient>
<linearGradient id="paint4_linear_9845_48785" x1="22.2527" y1="14.8416" x2="31.9843" y2="14.8416" gradientUnits="userSpaceOnUse">
<stop stop-color="#5078BA"/>
<stop offset="1" stop-color="#4CBB92"/>
</linearGradient>
<linearGradient id="paint5_linear_9845_48785" x1="26.082" y1="12.4002" x2="30.3554" y2="12.4002" gradientUnits="userSpaceOnUse">
<stop stop-color="#5078BA"/>
<stop offset="1" stop-color="#4CBB92"/>
</linearGradient>
<linearGradient id="paint6_linear_9845_48785" x1="23.5782" y1="19.4109" x2="25.0933" y2="19.4109" gradientUnits="userSpaceOnUse">
<stop stop-color="#5078BA"/>
<stop offset="1" stop-color="#4CBB92"/>
</linearGradient>
<linearGradient id="paint7_linear_9845_48785" x1="19.5288" y1="11.8429" x2="33.5703" y2="11.8429" gradientUnits="userSpaceOnUse">
<stop stop-color="#5078BA"/>
<stop offset="1" stop-color="#4CBB92"/>
</linearGradient>
<linearGradient id="paint8_linear_9845_48785" x1="23.2747" y1="8.02634" x2="36.4469" y2="8.02634" gradientUnits="userSpaceOnUse">
<stop stop-color="#5078BA"/>
<stop offset="1" stop-color="#4CBB92"/>
</linearGradient>
<linearGradient id="paint9_linear_9845_48785" x1="20.3568" y1="29.179" x2="40.1454" y2="29.179" gradientUnits="userSpaceOnUse">
<stop stop-color="#5078BA"/>
<stop offset="1" stop-color="#4CBB92"/>
</linearGradient>
</defs>
</svg>
