<svg width="61" height="50" viewBox="0 0 61 50" fill="none" xmlns="http://www.w3.org/2000/svg">
<path d="M41.1787 19.1722V13.7985C41.1787 8.45793 36.8504 4.12964 31.5098 4.12964H30.2208C24.8802 4.12964 20.5519 8.45793 20.5519 13.7985C20.5519 14.5767 21.1811 15.2058 21.9592 15.2058H23.0117C23.7899 15.2058 24.419 14.5767 24.419 13.7985C24.419 10.5937 27.016 7.99672 30.2208 7.99672H31.5075C34.7123 7.99672 37.3093 10.5937 37.3093 13.7985V19.1273L20.5472 19.1698C18.6172 19.3874 17.1106 21.0052 17.1106 22.9944V38.4674C17.1106 40.6031 18.8419 42.3345 20.9777 42.3345H40.7459C42.8816 42.3345 44.613 40.6031 44.613 38.4674V22.9944C44.613 21.0052 43.1063 19.3874 41.1763 19.1698L41.1787 19.1722ZM34.2369 36.1968H27.4961L29.2676 31.5871C28.1773 30.9934 27.4417 29.8321 27.4985 28.4934C27.5718 26.7716 28.9838 25.3524 30.7057 25.272C32.638 25.1821 34.2369 26.7242 34.2369 28.6377C34.2369 29.9172 33.5132 31.0171 32.4654 31.5871L34.2369 36.1968Z" fill="url(#paint0_linear_1596_15727)"/>
<defs>
<linearGradient id="paint0_linear_1596_15727" x1="17.1153" y1="23.2309" x2="44.6177" y2="23.2309" gradientUnits="userSpaceOnUse">
<stop stop-color="#5078BA"/>
<stop offset="1" stop-color="#4CBB92"/>
</linearGradient>
</defs>
</svg>
