<svg width="62" height="51" viewBox="0 0 62 51" fill="none" xmlns="http://www.w3.org/2000/svg">
<path d="M19.1645 28.0162C22.1923 28.8944 25.3609 29.7074 28.3352 30.7399C28.9665 30.9594 29.0224 30.9474 29.0734 31.6639C29.3186 35.1089 28.8864 38.841 29.0709 42.3174C29.0321 42.5683 28.9835 42.853 28.714 42.9543C26.9755 43.5478 25.2273 44.1172 23.4888 44.7155C22.0077 45.2269 20.3591 45.9651 18.8804 46.3752C18.1665 46.5731 17.9164 46.4886 17.2584 46.2184C14.9834 45.2776 12.6403 44.0448 10.3895 42.9978C10.0714 42.8506 8.95693 42.4549 8.80396 42.2547C8.54659 41.9121 8.73598 41.0774 8.74326 40.6649C8.79182 37.4828 8.70198 34.2959 8.74083 31.1138C8.7554 30.7954 8.99335 30.5855 9.28472 30.4938L19.1645 28.0138V28.0162ZM22.571 33.6518V36.2452C22.571 36.2669 22.6803 36.3586 22.7216 36.3707C22.9571 36.4406 24.2027 36.1005 24.4746 35.9847C24.5669 35.9461 24.6931 35.9002 24.7247 35.7917C24.783 35.6011 24.7417 34.8966 24.7369 34.6409C24.732 34.3393 24.6859 34.004 24.6762 33.7073C24.664 33.302 24.7466 32.6265 24.6762 32.2718C24.6397 32.0837 24.4066 32.0451 24.2464 31.9799C22.1534 31.15 19.8662 30.5614 17.7465 29.7725C17.3167 29.7146 16.2217 29.9631 15.8283 30.1561C15.5952 30.2695 16.0371 30.378 16.11 30.407C17.7878 31.1066 19.6549 31.6084 21.374 32.2405C21.6168 32.3297 22.7119 32.5999 22.1534 32.8508L18.152 34.0088L10.8508 31.2176C10.5594 31.1307 10.2608 31.29 10.0714 31.5023C10.052 31.5891 10.1904 31.6639 10.2535 31.7001C10.7391 31.9751 11.5792 32.2598 12.128 32.4865C13.9781 33.2537 15.8575 33.9606 17.7295 34.6747L17.7368 45.017C17.7441 45.3379 18.1884 45.5695 18.4628 45.5164C18.5647 45.444 18.504 43.9531 18.5113 43.6877C18.5138 43.5575 18.5696 43.4368 18.572 43.3066C18.6303 40.4502 18.5162 37.5865 18.5769 34.7302L22.4545 33.5842L22.5686 33.647L22.571 33.6518Z" fill="url(#paint0_linear_1596_15695)"/>
<path d="M42.2213 19.5942C42.0926 19.7245 41.233 19.6401 40.9854 19.6618C40.4488 19.71 39.8442 19.9079 39.7932 20.5206H39.4533C39.2032 19.4133 40.0312 17.534 38.5355 17.0732L16.7364 17.0925C16.2532 17.2228 15.9837 17.6112 15.906 18.0888V27.8305L11.5792 28.8196C11.4602 28.3081 11.5379 27.7726 11.5209 27.2515C11.4263 24.4144 11.4651 21.5701 11.4602 18.7571C11.4602 17.9996 11.4044 17.119 11.4602 16.3784C11.4724 16.2192 11.4845 16.0624 11.5477 15.9152L27.6068 7.81165L43.7898 15.9393L43.8335 17.5291C43.2362 18.0237 42.7312 18.3349 42.3912 19.0756C42.3305 19.2058 42.2771 19.5412 42.2213 19.5967V19.5942Z" fill="url(#paint1_linear_1596_15695)"/>
<path d="M27.3324 3.83344C27.5242 3.79484 27.7573 3.81172 27.9491 3.85756C28.3036 3.94441 29.2481 4.46309 29.6463 4.65609C35.1167 7.30501 40.4584 10.2169 45.9216 12.8803C46.2542 13.1022 46.1279 13.4858 46.1255 13.7825C46.1231 14.0793 46.1134 15.2614 46.009 15.4303C45.9288 15.5605 45.6326 15.6932 45.4748 15.6426C39.5722 12.5715 33.5822 9.66683 27.6553 6.63675C26.0309 7.41839 24.4041 8.21693 22.7943 9.03235C18.521 11.1963 14.2597 13.399 9.98393 15.5654C8.79661 16.0044 9.08797 14.8247 9.07826 14.1082C9.07341 13.7681 8.85488 13.2446 9.18995 13.0105L27.3324 3.83344Z" fill="url(#paint2_linear_1596_15695)"/>
<path d="M35.1798 25.1791L35.2357 37.7072H30.0979L30.0154 37.6252V31.0029C30.0154 30.9691 29.8236 30.5735 29.7847 30.5156C29.5443 30.1609 29.0854 29.98 28.6969 29.8304C25.9702 28.7834 22.8016 28.1851 20.0288 27.1839C18.9944 26.8148 17.9844 27.3576 16.9622 27.4445V25.1815H35.1823L35.1798 25.1791Z" fill="url(#paint3_linear_1596_15695)"/>
<path d="M37.9866 23.1382C37.5447 23.2298 37.7875 24.1104 37.7948 24.4337C37.8045 24.9258 37.739 25.4035 37.7341 25.8691C37.6904 31.0029 37.7754 36.1391 37.7341 41.2728C37.7074 41.4634 37.9138 41.7577 38.0983 41.7939C38.5815 41.8856 39.5455 41.7795 40.099 41.7939C44.1248 41.8904 48.1723 41.8398 52.2078 41.8518C52.5088 41.8301 52.6934 41.6178 52.7346 41.3283L52.7881 23.6665C52.8123 22.7329 51.137 23.3601 50.8699 23.0899C50.7145 22.9331 50.6902 21.9078 50.7339 21.681C50.8019 21.324 51.8387 21.4229 52.1519 21.4301C52.4457 21.4349 52.9119 21.4398 53.1863 21.4639C53.9098 21.5242 54.3687 22.412 54.4027 23.0585C54.4343 27.3986 54.3784 31.7507 54.342 36.0836C54.3274 37.9388 54.5217 40.2572 54.342 42.0448C54.2522 42.9471 53.4825 43.5671 52.5962 43.6202H37.5957C35.6776 43.4103 36.168 40.7976 36.1268 39.449C36.1219 39.3187 36.0709 39.1981 36.066 39.0678C35.9471 34.9569 36.0175 30.8147 36.0709 26.7062C36.0855 25.5386 35.9422 24.0163 36.0758 22.9017C36.168 22.1394 36.9766 21.5676 37.7074 21.488C38.0595 21.4494 38.987 21.5121 39.3731 21.5435C39.4896 21.5532 39.6086 21.5893 39.7227 21.6086C39.8514 21.7003 39.7931 22.9138 39.7348 23.143C39.2347 23.2154 38.448 23.0465 37.9842 23.143L37.9866 23.1382Z" fill="url(#paint4_linear_1596_15695)"/>
<path d="M38.3752 18.0599C38.4602 18.084 38.5063 18.2215 38.516 18.3059C38.6132 19.0273 38.4335 19.9199 38.4578 20.6557C37.7196 20.6316 37.0374 20.6436 36.3211 20.8222L22.6511 20.8173C20.9369 20.7715 18.776 21.0731 17.0957 20.8777C17.0156 20.868 16.9525 20.8704 16.9039 20.7932V18.1443L16.9865 18.0623H38.3728L38.3752 18.0599Z" fill="url(#paint5_linear_1596_15695)"/>
<path d="M16.9064 21.8692L35.4033 21.8427C35.0512 22.605 35.2017 23.377 35.1799 24.1876L16.9695 24.2334C16.9622 24.1924 16.9039 24.1249 16.9039 24.1032V21.8668L16.9064 21.8692Z" fill="url(#paint6_linear_1596_15695)"/>
<path d="M44.8872 18.2384C45.8705 18.0864 46.8952 18.552 47.2618 19.4953C47.3856 19.8162 47.3808 20.0864 47.4536 20.4096C48.0655 20.552 49.7943 20.1057 49.9035 21.0128C49.9545 21.4542 49.9521 22.6122 49.9035 23.0561C49.8453 23.5531 49.3936 23.763 48.9323 23.804C46.7641 23.9898 44.1053 23.7823 41.874 23.7992C41.755 23.7992 41.6409 23.8595 41.5413 23.8595C41.1383 23.8523 40.7619 23.4928 40.6964 23.0996C40.6211 22.6508 40.5822 21.7437 40.6332 21.2974C40.6624 21.049 40.7546 20.6364 41.0411 20.5978C41.4903 20.5399 42.5854 20.7257 42.9277 20.4289C43.0467 20.3252 43.1365 19.7559 43.2458 19.5315C43.525 18.9549 44.2437 18.3397 44.892 18.2408L44.8872 18.2384ZM44.9964 19.6183C44.0762 19.8065 44.421 21.6135 45.55 21.1044C46.3926 20.7233 46.0235 19.406 44.9964 19.6183Z" fill="url(#paint7_linear_1596_15695)"/>
<path d="M45.2223 32.0403C46.9268 31.8376 48.9615 32.1561 50.7 32.0306C51.6372 32.1874 51.6032 33.1331 50.649 33.2393L45.0426 33.2344C44.2244 32.9498 44.3094 32.1488 45.2223 32.0403Z" fill="url(#paint8_linear_1596_15695)"/>
<path d="M45.1665 36.6191L50.9817 36.6626C51.6882 36.8893 51.4212 37.741 50.7631 37.8206L45.0451 37.8133C44.2608 37.642 44.3361 36.6602 45.1665 36.6191Z" fill="url(#paint9_linear_1596_15695)"/>
<path d="M44.8849 27.4541L50.9235 27.4445C51.6227 27.664 51.4431 28.5325 50.7608 28.6H44.9869C44.4211 28.4505 44.2973 27.6785 44.8849 27.4517V27.4541Z" fill="url(#paint10_linear_1596_15695)"/>
<path d="M41.3837 29.2442C41.0583 29.5216 40.7767 29.5337 40.4562 29.2369C40.376 29.1622 40.3372 29.0488 40.2668 28.9836C39.888 28.6411 39.0066 28.1175 39.4315 27.553C39.9196 26.9065 40.5411 28.0645 40.9782 28.1561L42.7385 26.202C43.2581 25.9149 43.8069 26.2768 43.5616 26.8558L41.3837 29.2442Z" fill="url(#paint11_linear_1596_15695)"/>
<path d="M43.4959 30.8244C43.6295 30.9571 43.6805 31.3141 43.5372 31.4685L41.1941 33.9413C40.6624 34.185 40.5094 33.8014 40.2156 33.5312C39.9923 33.3261 39.4289 32.9136 39.344 32.6579C39.174 32.1561 39.7057 31.787 40.1525 32.0765C40.3273 32.1898 40.7401 32.7809 40.9198 32.7326C40.9805 32.7158 41.4515 32.226 41.5438 32.1319C41.8351 31.8304 42.5199 30.9016 42.8282 30.7592C43.0249 30.67 43.343 30.6651 43.4984 30.822L43.4959 30.8244Z" fill="url(#paint12_linear_1596_15695)"/>
<path d="M43.0539 35.2368C43.4109 35.2079 43.7144 35.6108 43.593 35.9413C43.5493 36.0619 43.0588 36.5709 42.9301 36.7181C42.663 37.0172 41.6117 38.2211 41.3665 38.3658C40.8857 38.6457 40.6453 38.4261 40.2908 38.127C40.1597 38.016 39.424 37.3429 39.39 37.2561C39.1933 36.7832 39.696 36.2501 40.1549 36.5516C40.2957 36.6433 40.8784 37.3043 41.0168 37.244L42.68 35.4202C42.7699 35.3406 42.9398 35.2489 43.0564 35.2392L43.0539 35.2368Z" fill="url(#paint13_linear_1596_15695)"/>
<defs>
<linearGradient id="paint0_linear_1596_15695" x1="8.67042" y1="37.2488" x2="29.1511" y2="37.2488" gradientUnits="userSpaceOnUse">
<stop stop-color="#5078BA"/>
<stop offset="1" stop-color="#4CBB92"/>
</linearGradient>
<linearGradient id="paint1_linear_1596_15695" x1="11.436" y1="18.3108" x2="43.8335" y2="18.3108" gradientUnits="userSpaceOnUse">
<stop stop-color="#5078BA"/>
<stop offset="1" stop-color="#4CBB92"/>
</linearGradient>
<linearGradient id="paint2_linear_1596_15695" x1="9.00299" y1="9.73921" x2="46.1498" y2="9.73921" gradientUnits="userSpaceOnUse">
<stop stop-color="#5078BA"/>
<stop offset="1" stop-color="#4CBB92"/>
</linearGradient>
<linearGradient id="paint3_linear_1596_15695" x1="16.9622" y1="31.4444" x2="35.2357" y2="31.4444" gradientUnits="userSpaceOnUse">
<stop stop-color="#5078BA"/>
<stop offset="1" stop-color="#4CBB92"/>
</linearGradient>
<linearGradient id="paint4_linear_1596_15695" x1="36.0029" y1="32.5131" x2="54.4197" y2="32.5131" gradientUnits="userSpaceOnUse">
<stop stop-color="#5078BA"/>
<stop offset="1" stop-color="#4CBB92"/>
</linearGradient>
<linearGradient id="paint5_linear_1596_15695" x1="16.9064" y1="19.5025" x2="38.5452" y2="19.5025" gradientUnits="userSpaceOnUse">
<stop stop-color="#5078BA"/>
<stop offset="1" stop-color="#4CBB92"/>
</linearGradient>
<linearGradient id="paint6_linear_1596_15695" x1="16.9064" y1="23.0368" x2="35.4033" y2="23.0368" gradientUnits="userSpaceOnUse">
<stop stop-color="#5078BA"/>
<stop offset="1" stop-color="#4CBB92"/>
</linearGradient>
<linearGradient id="paint7_linear_1596_15695" x1="40.6065" y1="21.0465" x2="49.94" y2="21.0465" gradientUnits="userSpaceOnUse">
<stop stop-color="#5078BA"/>
<stop offset="1" stop-color="#4CBB92"/>
</linearGradient>
<linearGradient id="paint8_linear_1596_15695" x1="44.4818" y1="32.6048" x2="51.3847" y2="32.6048" gradientUnits="userSpaceOnUse">
<stop stop-color="#5078BA"/>
<stop offset="1" stop-color="#4CBB92"/>
</linearGradient>
<linearGradient id="paint9_linear_1596_15695" x1="44.4988" y1="37.2199" x2="51.3993" y2="37.2199" gradientUnits="userSpaceOnUse">
<stop stop-color="#5078BA"/>
<stop offset="1" stop-color="#4CBB92"/>
</linearGradient>
<linearGradient id="paint10_linear_1596_15695" x1="44.5013" y1="28.0235" x2="51.3702" y2="28.0235" gradientUnits="userSpaceOnUse">
<stop stop-color="#5078BA"/>
<stop offset="1" stop-color="#4CBB92"/>
</linearGradient>
<linearGradient id="paint11_linear_1596_15695" x1="39.3174" y1="27.7798" x2="43.6199" y2="27.7798" gradientUnits="userSpaceOnUse">
<stop stop-color="#5078BA"/>
<stop offset="1" stop-color="#4CBB92"/>
</linearGradient>
<linearGradient id="paint12_linear_1596_15695" x1="39.3124" y1="32.3611" x2="43.6246" y2="32.3611" gradientUnits="userSpaceOnUse">
<stop stop-color="#5078BA"/>
<stop offset="1" stop-color="#4CBB92"/>
</linearGradient>
<linearGradient id="paint13_linear_1596_15695" x1="39.3463" y1="36.8628" x2="43.6197" y2="36.8628" gradientUnits="userSpaceOnUse">
<stop stop-color="#5078BA"/>
<stop offset="1" stop-color="#4CBB92"/>
</linearGradient>
</defs>
</svg>
